<svg width="560" height="610" viewBox="0 0 560 610" fill="none" xmlns="http://www.w3.org/2000/svg">
<path d="M291.26 131.849H190.536V259.549H291.26V131.849Z" fill="#CFD5EE"/>
<path d="M284.193 140.809H197.603V250.59H284.193V140.809Z" fill="#E8ECF7"/>
<path d="M560 131.849H403.47V301.306H560V131.849Z" fill="#CFD5EE"/>
<path d="M560 140.809H410.537V292.346H560V140.809Z" fill="#E8ECF7"/>
<path d="M357.636 131.849H303.747V187.338H357.636V131.849Z" fill="#CFD5EE"/>
<path d="M352.034 137.635H309.362V181.565H352.034V137.635Z" fill="#E8ECF7"/>
<path d="M371.222 193.844H304.369V273.696H371.222V193.844Z" fill="#CFD5EE"/>
<path d="M365.229 201.009H310.362V266.543H365.229V201.009Z" fill="#E8ECF7"/>
<path d="M228.228 149.804H203.926V171.287H228.228V149.804Z" fill="#CFD5EE"/>
<path d="M210.163 205.195H203.926V210.7H210.163V205.195Z" fill="#CFD5EE"/>
<path d="M279.371 205.195H212.641V210.7H279.371V205.195Z" fill="#CFD5EE"/>
<path d="M210.163 214.557H203.926V220.062H210.163V214.557Z" fill="#CFD5EE"/>
<path d="M279.371 214.557H212.641V220.062H279.371V214.557Z" fill="#CFD5EE"/>
<path d="M210.163 223.919H203.926V229.424H210.163V223.919Z" fill="#CFD5EE"/>
<path d="M279.371 223.919H212.641V229.424H279.371V223.919Z" fill="#CFD5EE"/>
<path d="M210.163 233.294H203.926V238.799H210.163V233.294Z" fill="#CFD5EE"/>
<path d="M279.371 233.294H212.641V238.799H279.371V233.294Z" fill="#CFD5EE"/>
<path d="M243.657 179.477H203.926V200.96H243.657V179.477Z" fill="#CFD5EE"/>
<path d="M279.408 179.477H247.941V200.96H279.408V179.477Z" fill="#CFD5EE"/>
<path d="M280.799 149.804H231.573V152.905H280.799V149.804Z" fill="#CFD5EE"/>
<path d="M280.799 154.968H231.573V158.068H280.799V154.968Z" fill="#CFD5EE"/>
<path d="M262.112 160.131H231.573V163.231H262.112V160.131Z" fill="#CFD5EE"/>
<path d="M262.112 165.282H231.573V168.382H262.112V165.282Z" fill="#CFD5EE"/>
<path d="M335.336 207.759H315.953V224.884H335.336V207.759Z" fill="#CFD5EE"/>
<path d="M360.004 207.759H337.997V210.236H360.004V207.759Z" fill="#CFD5EE"/>
<path d="M360.004 211.872H337.997V214.35H360.004V211.872Z" fill="#CFD5EE"/>
<path d="M351.655 215.986H337.997V218.463H351.655V215.986Z" fill="#CFD5EE"/>
<path d="M351.655 220.099H337.997V222.577H351.655V220.099Z" fill="#CFD5EE"/>
<path d="M335.336 230.022H315.953V247.16H335.336V230.022Z" fill="#CFD5EE"/>
<path d="M360.395 250.602H315.953V261.648H360.395V250.602Z" fill="#CFD5EE"/>
<path d="M360.004 230.022H337.997V232.5H360.004V230.022Z" fill="#CFD5EE"/>
<path d="M360.004 234.136H337.997V236.614H360.004V234.136Z" fill="#CFD5EE"/>
<path d="M351.655 238.249H337.997V240.727H351.655V238.249Z" fill="#CFD5EE"/>
<path d="M351.655 242.363H337.997V244.841H351.655V242.363Z" fill="#CFD5EE"/>
<path d="M335.275 141.602H326.133V150.744H335.275V141.602Z" fill="#CFD5EE"/>
<path d="M320.713 155.651H314.024V162.34H320.713V155.651Z" fill="#CFD5EE"/>
<path d="M333.688 155.651H326.999V162.34H333.688V155.651Z" fill="#CFD5EE"/>
<path d="M347.371 155.651H340.682V162.34H347.371V155.651Z" fill="#CFD5EE"/>
<path d="M320.713 168.26H314.024V174.949H320.713V168.26Z" fill="#CFD5EE"/>
<path d="M333.688 168.26H326.999V174.949H333.688V168.26Z" fill="#CFD5EE"/>
<path d="M347.371 168.26H340.682V174.949H347.371V168.26Z" fill="#CFD5EE"/>
<path d="M329.99 150.659C329.99 151.55 330.014 152.441 330.051 153.332C330.087 154.199 330.161 155.102 330.368 155.944C330.429 156.164 330.759 156.115 330.759 155.895C330.759 155.029 330.637 154.15 330.539 153.283C330.441 152.417 330.368 151.538 330.319 150.659C330.319 150.451 329.99 150.439 329.99 150.659Z" fill="#CFD5EE"/>
<path d="M318.199 156.384C317.405 155.09 318.174 153.735 319.517 153.32C320.835 152.905 322.276 152.856 323.643 152.844C326.316 152.819 329.001 152.917 331.674 152.966C334.372 153.015 337.069 153.051 339.767 153.088C340.426 153.1 341.341 152.978 341.952 153.308C342.428 153.576 342.623 154.077 342.733 154.589C342.916 155.431 342.83 156.384 343.282 157.153C343.38 157.323 343.709 157.262 343.685 157.043C343.599 156.237 343.502 155.419 343.355 154.626C343.233 153.93 342.977 153.222 342.342 152.832C341.488 152.295 340.279 152.453 339.315 152.441C337.972 152.417 336.618 152.392 335.275 152.368C332.626 152.319 329.978 152.27 327.329 152.233C324.851 152.197 322.239 151.977 319.81 152.575C318.87 152.807 317.967 153.222 317.54 154.138C317.149 154.968 317.222 155.92 317.723 156.689C317.918 156.957 318.394 156.689 318.199 156.384Z" fill="#CFD5EE"/>
<path d="M316.893 161.766C316.905 163.109 316.942 164.464 317.003 165.807C317.039 166.478 317.076 167.149 317.125 167.821C317.173 168.455 317.198 169.114 317.344 169.737C317.405 169.981 317.759 169.92 317.772 169.676C317.808 169.017 317.711 168.321 317.662 167.662C317.613 167.015 317.576 166.368 317.552 165.721C317.491 164.403 317.454 163.085 317.454 161.766C317.466 161.4 316.893 161.4 316.893 161.766Z" fill="#CFD5EE"/>
<path d="M317.283 165.013C319.871 164.769 322.459 164.684 325.046 164.964C326.072 165.074 327.317 165.233 327.915 166.185C328.488 167.088 328.293 168.248 328.757 169.2C328.879 169.444 329.306 169.334 329.282 169.053C329.172 167.991 329.074 166.673 328.452 165.77C327.841 164.891 326.792 164.574 325.791 164.44C322.984 164.049 320.017 164.11 317.222 164.61C316.99 164.647 317.051 165.038 317.283 165.013Z" fill="#CFD5EE"/>
<path d="M344.161 161.644C344.051 162.938 343.953 164.244 343.892 165.55C343.856 166.197 343.831 166.856 343.831 167.503C343.819 168.126 343.783 168.76 343.892 169.383C343.941 169.664 344.405 169.664 344.454 169.383C344.564 168.76 344.527 168.126 344.552 167.503C344.564 166.856 344.588 166.197 344.6 165.55C344.637 164.244 344.698 162.95 344.783 161.644C344.796 161.241 344.185 161.254 344.161 161.644Z" fill="#CFD5EE"/>
<path d="M497.149 170.414L470.04 175.036L474.248 199.715L501.358 195.093L497.149 170.414Z" fill="#98C4F9"/>
<path d="M548.402 233.709L525.812 228.968L521.375 250.113L543.964 254.854L548.402 233.709Z" fill="white"/>
<path d="M453.002 155.358H429.92V176.963H453.002V155.358Z" fill="white"/>
<path d="M508.508 217.363L478.444 210.089L473.825 229.178L503.889 236.453L508.508 217.363Z" fill="#F5A860"/>
<path d="M537.224 156.823H515.619V178.916H537.224V156.823Z" fill="#D09479"/>
<path d="M443.689 155.529C443.689 156.774 442.676 157.787 441.431 157.787C440.186 157.787 439.173 156.774 439.173 155.529C439.173 154.284 440.186 153.271 441.431 153.271C442.676 153.259 443.689 154.272 443.689 155.529Z" fill="#F5A860"/>
<path d="M490.767 87.1876H98.527L101.835 79.6809C109.451 62.3972 126.552 51.2409 145.435 51.2409H442.59C459.691 51.2409 475.486 60.4076 483.969 75.2623L490.767 87.1876Z" fill="#CFD5EE"/>
<path d="M164.549 0H160.204V52.7422H164.549V0Z" fill="#CFD5EE"/>
<path d="M429.103 0H424.757V52.7422H429.103V0Z" fill="#CFD5EE"/>
<path d="M560 351.863H7.92171V577.015H560V351.863Z" fill="white"/>
<path d="M560 550.186H7.92171V577.027H560V550.186Z" fill="#E1E6F4"/>
<path d="M119.338 557.083C119.338 555.166 119.338 553.25 119.338 551.346C119.338 546.695 119.338 542.045 119.338 537.394C119.338 530.706 119.338 524.004 119.338 517.316C119.338 509.223 119.338 501.13 119.338 493.05C119.338 484.188 119.338 475.327 119.338 466.465C119.338 457.555 119.338 448.645 119.338 439.734C119.338 431.373 119.338 423.012 119.326 414.663C119.326 407.571 119.314 400.48 119.314 393.4C119.314 388.188 119.302 382.988 119.289 377.776C119.289 375.152 119.277 372.516 119.277 369.891C119.277 369.708 119.277 369.537 119.277 369.354C119.277 369.195 119.033 369.195 119.033 369.354C119.033 371.271 119.021 373.187 119.021 375.091C119.009 379.741 118.996 384.392 118.996 389.042C118.996 395.731 118.984 402.432 118.984 409.121C118.984 417.214 118.972 425.307 118.972 433.387C118.972 442.249 118.972 451.11 118.972 459.972C118.972 468.882 118.972 477.792 118.972 486.703C118.972 495.064 118.972 503.425 118.972 511.774C118.972 518.866 118.972 525.957 118.972 533.037C118.972 538.249 118.972 543.449 118.972 548.661C118.972 551.285 118.972 553.921 118.972 556.546C118.972 556.729 118.972 556.9 118.972 557.083C118.96 557.327 119.338 557.327 119.338 557.083Z" fill="#DDE4ED"/>
<path d="M232.818 557.083C232.818 555.166 232.818 553.25 232.818 551.346C232.818 546.695 232.818 542.045 232.818 537.394C232.818 530.706 232.818 524.004 232.818 517.316C232.818 509.223 232.818 501.13 232.818 493.05C232.818 484.188 232.818 475.327 232.818 466.465C232.818 457.555 232.818 448.645 232.818 439.734C232.818 431.373 232.818 423.012 232.805 414.663C232.805 407.571 232.793 400.48 232.793 393.4C232.793 388.188 232.781 382.988 232.769 377.776C232.769 375.152 232.757 372.516 232.757 369.891C232.757 369.708 232.757 369.537 232.757 369.354C232.757 369.195 232.512 369.195 232.512 369.354C232.512 371.271 232.5 373.187 232.5 375.091C232.488 379.741 232.476 384.392 232.476 389.042C232.476 395.731 232.464 402.432 232.464 409.121C232.464 417.214 232.451 425.307 232.451 433.387C232.451 442.249 232.451 451.11 232.451 459.972C232.451 468.882 232.451 477.792 232.451 486.703C232.451 495.064 232.451 503.425 232.451 511.774C232.451 518.866 232.451 525.957 232.451 533.037C232.451 538.249 232.451 543.449 232.451 548.661C232.451 551.285 232.451 553.921 232.451 556.546C232.451 556.729 232.451 556.9 232.451 557.083C232.427 557.327 232.818 557.327 232.818 557.083Z" fill="#DDE4ED"/>
<path d="M346.297 557.083C346.297 555.166 346.297 553.25 346.297 551.346C346.297 546.695 346.297 542.045 346.297 537.394C346.297 530.706 346.297 524.004 346.297 517.316C346.297 509.223 346.297 501.13 346.297 493.05C346.297 484.188 346.297 475.327 346.297 466.465C346.297 457.555 346.297 448.645 346.297 439.734C346.297 431.373 346.297 423.012 346.285 414.663C346.285 407.571 346.273 400.48 346.273 393.4C346.273 388.188 346.26 382.988 346.248 377.776C346.248 375.152 346.236 372.516 346.236 369.891C346.236 369.708 346.236 369.537 346.236 369.354C346.236 369.195 345.992 369.195 345.992 369.354C345.992 371.271 345.98 373.187 345.98 375.091C345.967 379.741 345.955 384.392 345.955 389.042C345.955 395.731 345.943 402.432 345.943 409.121C345.943 417.214 345.931 425.307 345.931 433.387C345.931 442.249 345.931 451.11 345.931 459.972C345.931 468.882 345.931 477.792 345.931 486.703C345.931 495.064 345.931 503.425 345.931 511.774C345.931 518.866 345.931 525.957 345.931 533.037C345.931 538.249 345.931 543.449 345.931 548.661C345.931 551.285 345.931 553.921 345.931 556.546C345.931 556.729 345.931 556.9 345.931 557.083C345.906 557.327 346.297 557.327 346.297 557.083Z" fill="#DDE4ED"/>
<path d="M459.764 557.083C459.764 555.166 459.764 553.25 459.764 551.346C459.764 546.695 459.764 542.045 459.764 537.394C459.764 530.706 459.764 524.004 459.764 517.316C459.764 509.223 459.764 501.13 459.764 493.05C459.764 484.188 459.764 475.327 459.764 466.465C459.764 457.555 459.764 448.645 459.764 439.734C459.764 431.373 459.764 423.012 459.752 414.663C459.752 407.571 459.74 400.48 459.74 393.4C459.74 388.188 459.728 382.988 459.715 377.776C459.715 375.152 459.703 372.516 459.703 369.891C459.703 369.708 459.703 369.537 459.703 369.354C459.703 369.195 459.459 369.195 459.459 369.354C459.459 371.271 459.447 373.187 459.447 375.091C459.435 379.741 459.422 384.392 459.422 389.042C459.422 395.731 459.41 402.432 459.41 409.121C459.41 417.214 459.398 425.307 459.398 433.387C459.398 442.249 459.398 451.11 459.398 459.972C459.398 468.882 459.398 477.792 459.398 486.703C459.398 495.064 459.398 503.425 459.398 511.774C459.398 518.866 459.398 525.957 459.398 533.037C459.398 538.249 459.398 543.449 459.398 548.661C459.398 551.285 459.398 553.921 459.398 556.546C459.398 556.729 459.398 556.9 459.398 557.083C459.386 557.327 459.764 557.327 459.764 557.083Z" fill="#DDE4ED"/>
<path d="M287.525 279.054C288.746 276.405 288.526 273.146 286.976 270.681C286.549 270.009 286.011 269.326 286.06 268.52C286.109 267.605 286.903 266.946 287.476 266.238C288.978 264.395 289.136 261.587 287.855 259.585C287.403 258.89 286.817 258.292 286.414 257.571C285.291 255.533 285.938 253.031 286.597 250.797C287.11 249.1 287.623 247.379 288.611 245.915C289.197 245.036 289.966 244.23 290.223 243.193C290.491 242.094 290.149 240.874 290.601 239.836C291.114 238.64 292.505 238.066 293.201 236.98C294.128 235.527 293.579 233.574 292.652 232.122C292.053 231.194 291.309 230.315 291.065 229.241C290.857 228.326 291.04 227.362 291.089 226.422C291.284 222.662 288.978 218.903 285.548 217.353C283.595 216.474 281.288 216.23 279.677 214.814C278.529 213.801 277.87 212.311 276.686 211.347C275.173 210.114 273.012 209.956 271.132 210.468C269.253 210.969 267.58 212.043 265.945 213.105C264.578 212.641 263.04 212.763 261.673 213.227C257.571 214.594 254.093 217.719 252.286 221.637C251.7 222.906 251.285 224.261 250.577 225.47C249.613 227.13 248.185 228.448 247.05 229.998C245.915 231.548 245.085 233.513 245.597 235.356C246.025 236.882 247.306 238.078 247.599 239.641C248.27 243.144 243.84 245.61 243.229 249.125C242.729 252.054 245.011 255.008 244.279 257.889C243.718 260.074 241.643 261.441 239.86 262.82C238.078 264.199 236.321 266.225 236.797 268.435C237.139 270.034 238.615 271.254 238.786 272.878C239.14 276.283 233.733 278.444 234.478 281.788C234.954 283.912 237.566 284.657 239.726 284.913C254.154 286.671 268.862 285.108 282.948 281.483C284.766 281.007 286.744 280.763 287.525 279.054Z" fill="black"/>
<path d="M294.849 329.318C295.715 331.577 297.034 333.725 297.449 336.105C297.827 338.278 298.205 339.925 299.255 341.28C299.597 341.72 300.207 341.354 300.744 341.537C301.476 341.805 302.294 341.5 302.99 341.158C309.105 338.119 312.56 330.527 310.839 323.911C310.521 322.691 310.045 321.507 309.264 320.518C307.555 318.333 304.516 317.418 301.769 317.894C299.035 318.37 296.606 320.078 294.873 322.251C293.189 324.375 293.872 326.78 294.849 329.318Z" fill="#603813"/>
<path d="M281.825 272.939C281.52 272.609 281.056 272.499 280.629 272.39C278.871 271.926 277.199 271.181 275.685 270.18C275.27 269.912 274.867 269.607 274.599 269.192C274.208 268.581 274.184 267.812 274.172 267.092C274.135 265.591 274.342 263.54 275.111 262.259C277.467 263.174 280.238 262.466 282.228 260.916C284.229 259.366 285.548 257.108 286.487 254.764C287.159 253.104 287.659 251.359 287.757 249.576C287.867 247.624 287.488 245.683 287.427 243.73C287.293 239.153 288.892 234.429 287.391 230.096C287.195 229.546 287.012 229.351 286.866 228.802C286.512 227.508 285.499 226.422 284.242 225.97C283.546 225.726 282.765 225.665 282.154 225.238C281.337 224.688 280.983 223.626 280.14 223.114C279.335 222.613 278.309 222.748 277.357 222.723C276.405 222.699 275.295 222.345 275.026 221.429C274.379 223.7 273.036 225.714 271.035 226.971C269.521 227.923 267.556 228.668 267.104 230.401C266.799 231.609 267.373 232.976 266.848 234.111C266.299 235.32 264.797 235.698 263.809 236.589C262.674 237.615 262.32 239.409 262.966 240.788C262.1 240.007 260.574 239.47 259.415 239.641C257.791 239.873 256.717 241.655 256.815 243.303C256.912 244.95 257.901 246.403 259.036 247.587C259.976 248.551 261.233 249.454 262.564 249.198C262.466 249.198 262.368 249.198 262.283 249.21C262.71 254.264 262.649 260.037 261.05 264.846C259.451 269.655 256.082 274.086 251.371 275.99C248.307 280.665 247.709 286.988 247.904 292.578C247.99 295.251 248.258 297.998 249.454 300.39C251.005 303.491 253.934 305.651 256.876 307.482C262.381 310.924 268.301 313.707 274.465 315.733C276.625 316.441 278.92 317.064 281.153 316.612C284.449 315.941 286.89 312.95 287.891 309.74C288.88 306.518 288.672 303.075 288.404 299.719C287.916 293.836 287.244 287.977 286.378 282.13C285.865 278.712 284.132 275.465 281.825 272.939Z" fill="#603813"/>
<path d="M296.631 352.949C290.015 355.635 282.618 355.378 275.502 354.805C267.117 354.133 258.975 353.291 250.687 351.851C250.809 348.165 250.931 344.454 250.455 340.792C250.175 338.607 249.686 336.459 249.186 334.311C248.478 331.21 247.831 328.147 247.123 325.046C241.618 325.559 236.37 324.509 231.377 322.117C230.083 313.377 230.071 304.455 231.353 295.715C232.11 290.503 233.55 284.974 237.554 281.544C239.092 280.226 240.922 279.31 242.741 278.419C246.818 276.454 251.066 274.965 255.203 273.146C260.916 280.995 268.105 287.757 276.283 292.969C280.043 286.951 281.459 279.774 281.263 272.682C286.915 273.647 291.761 276.43 296.728 279.286C298.401 280.25 300.109 281.227 301.464 282.606C304.369 285.523 305.382 289.771 306.237 293.799C308.275 303.381 310.106 313.023 311.18 322.764C307.909 322.129 303.674 323.167 300.781 324.814C299.719 325.425 298.681 326.255 298.376 327.439C296.68 334.067 297.741 340.926 298.388 347.737C298.498 348.909 298.62 350.117 298.242 351.24C297.888 352.363 297.717 352.51 296.631 352.949Z" fill="#75AAF5"/>
<path d="M296.179 299.548C294.312 302.941 296.033 306.762 297.51 309.935C298.376 311.791 299.231 313.719 299.328 315.806C299.414 317.784 298.889 319.724 298.315 321.604C298.01 322.642 297.668 323.667 297.4 324.717C297.143 325.73 296.789 326.914 296.924 327.964C296.948 328.195 297.265 328.269 297.351 328.025C297.632 327.097 297.693 326.108 297.937 325.156C298.181 324.229 298.462 323.313 298.755 322.398C299.316 320.603 299.865 318.785 299.963 316.893C300.158 312.877 297.668 309.716 296.411 306.103C295.691 304.04 295.374 301.708 296.435 299.707C296.521 299.524 296.265 299.377 296.179 299.548Z" fill="#609BE2"/>
<path d="M238.445 283.607C241.838 284.864 245.378 286.268 248.148 288.648C249.528 289.832 250.663 291.26 251.59 292.822C252.506 294.36 253.104 296.045 253.946 297.607C254.032 297.766 254.264 297.656 254.227 297.485C253.824 295.703 252.872 293.958 251.92 292.42C250.956 290.869 249.796 289.441 248.405 288.257C245.536 285.841 241.997 284.596 238.518 283.314C238.347 283.253 238.274 283.546 238.445 283.607Z" fill="#609BE2"/>
<path d="M253.556 299.719C254.422 306.933 255.045 314.171 255.606 321.409C255.618 321.616 255.936 321.616 255.924 321.409C255.509 314.159 254.764 306.92 253.861 299.719C253.836 299.524 253.531 299.524 253.556 299.719Z" fill="#609BE2"/>
<path d="M232.293 317.186C235.71 317.967 239.189 318.467 242.692 318.663C244.389 318.76 246.098 318.821 247.794 318.736C249.222 318.663 251.017 318.504 252.225 317.637C252.408 317.503 252.311 317.149 252.054 317.234C251.31 317.491 250.638 317.808 249.869 317.967C249.1 318.125 248.307 318.211 247.514 318.235C245.878 318.309 244.218 318.248 242.582 318.162C239.153 317.979 235.747 317.54 232.378 316.856C232.171 316.819 232.073 317.137 232.293 317.186Z" fill="#609BE2"/>
<path d="M300.073 319.004C301.33 318.223 302.734 317.71 304.186 317.479C304.919 317.369 305.651 317.332 306.396 317.381C306.774 317.405 307.152 317.442 307.531 317.503C307.872 317.564 308.214 317.686 308.556 317.662C308.715 317.649 308.763 317.454 308.629 317.369C308.068 317.003 307.177 316.99 306.53 316.942C305.749 316.893 304.98 316.929 304.211 317.039C302.66 317.271 301.196 317.833 299.902 318.699C299.719 318.833 299.89 319.126 300.073 319.004Z" fill="#609BE2"/>
<path d="M312.035 359.687C310.045 355.964 306.811 352.534 302.636 351.912C298.022 351.228 293.091 355.622 288.672 354.109C282.508 352.009 276.649 349.129 270.583 346.785C264.517 344.442 258.145 342.867 251.652 343.05C250.468 337.106 251.102 330.319 250.87 324.216C245.634 324.643 237.102 324.521 233.391 322.971C233.892 330.466 235.234 337.765 236.76 345.113C237.163 347.078 237.871 349.275 238.701 351.106C239.25 352.339 239.958 353.608 241.167 354.219C241.838 354.56 242.607 354.658 243.351 354.756C255.301 356.245 267.312 357.221 279.347 357.673C282.923 357.807 285.279 362.116 288.685 363.202C290.186 363.678 291.797 363.678 293.372 363.617C299.804 363.373 305.956 361.896 312.035 359.687Z" fill="#603813"/>
<path d="M250.663 344.283C249.186 345.43 247.99 347.151 247.758 349.043C247.746 349.165 247.941 349.19 247.978 349.068C248.258 348.189 248.576 347.347 249.052 346.553C249.528 345.772 250.114 345.064 250.809 344.466C250.919 344.381 250.773 344.198 250.663 344.283Z" fill="#3F2108"/>
<path d="M260.379 272.56C260.293 272.536 260.208 272.548 260.135 272.585C260.11 272.597 260.098 272.609 260.086 272.621C260.074 272.634 260.061 272.658 260.049 272.67C260.025 272.707 260.013 272.744 260.013 272.78C260.013 272.805 260.049 272.817 260.061 272.792C260.074 272.768 260.098 272.744 260.122 272.719C260.122 272.719 260.135 272.719 260.135 272.707H260.147C260.147 272.707 260.171 272.695 260.159 272.695C260.171 272.682 260.183 272.67 260.208 272.67H260.22C260.232 272.658 260.208 272.67 260.22 272.67C260.232 272.67 260.232 272.67 260.245 272.658C260.257 272.658 260.257 272.658 260.269 272.658H260.281C260.269 272.658 260.281 272.658 260.281 272.658C260.293 272.658 260.318 272.658 260.33 272.658C260.318 272.658 260.33 272.658 260.33 272.658H260.342C260.354 272.658 260.354 272.658 260.367 272.67C260.391 272.682 260.428 272.658 260.44 272.634C260.428 272.597 260.415 272.56 260.379 272.56Z" fill="#8E6E61"/>
<path d="M260.904 272.988C262.393 273.036 263.882 273.097 265.371 273.146C265.713 273.159 266.067 273.159 266.409 273.183C266.799 273.22 267.007 273.342 267.251 273.635C267.446 273.866 267.8 274.33 268.154 274.098C268.227 274.05 268.215 273.964 268.154 273.915C267.959 273.781 267.788 273.708 267.629 273.525C267.483 273.354 267.348 273.171 267.165 273.049C266.677 272.719 265.933 272.817 265.383 272.805C263.894 272.756 262.405 272.695 260.916 272.646C260.672 272.621 260.672 272.975 260.904 272.988Z" fill="#3F2108"/>
<path d="M271.718 273.439C273.451 271.95 275.868 273.415 277.809 272.719C277.98 272.658 277.907 272.426 277.736 272.451C277.113 272.548 276.491 272.573 275.856 272.524C275.282 272.487 274.709 272.402 274.123 272.39C273.171 272.377 272.194 272.548 271.45 273.183C271.279 273.342 271.535 273.598 271.718 273.439Z" fill="#3F2108"/>
<path d="M263.723 256.998C263.882 261.721 265.066 266.628 267.507 270.705C267.568 270.815 267.727 270.717 267.666 270.607C266.628 268.471 265.701 266.299 265.078 263.992C264.456 261.709 264.114 259.353 264.028 256.986C264.028 256.802 263.723 256.802 263.723 256.998Z" fill="#3F2108"/>
<path d="M262.674 244.059C262.429 243.217 262.149 242.302 261.453 241.716C260.916 241.264 260.098 241.13 259.451 241.447C259.122 241.606 258.865 241.923 258.865 242.302C258.865 242.387 259 242.436 259.036 242.351C259.195 242.021 259.439 241.777 259.793 241.667C260.159 241.545 260.574 241.557 260.916 241.716C261.831 242.119 262.173 243.266 262.442 244.133C262.49 244.267 262.722 244.206 262.674 244.059Z" fill="#3F2108"/>
<path d="M261.538 241.887C261.136 241.862 260.721 241.923 260.342 242.058C259.964 242.192 259.585 242.387 259.341 242.717C259.256 242.839 259.366 243.022 259.512 242.936C259.817 242.753 260.135 242.558 260.476 242.436C260.818 242.314 261.184 242.277 261.538 242.302C261.807 242.326 261.807 241.911 261.538 241.887Z" fill="#3F2108"/>
<path d="M268.569 256.656C269.35 257.901 270.29 259.036 271.364 260.037C271.889 260.525 272.438 260.989 273.024 261.416C273.61 261.844 274.22 262.295 274.916 262.49C275.026 262.527 275.124 262.368 275.026 262.295C274.501 261.844 273.879 261.514 273.305 261.111C272.719 260.696 272.158 260.257 271.621 259.769C270.546 258.804 269.607 257.706 268.813 256.497C268.728 256.351 268.471 256.497 268.569 256.656Z" fill="#3F2108"/>
<path d="M272.243 305.395C271.755 302.673 270.485 296.142 270.522 296.057C266.482 296.179 261.392 296.85 257.401 297.51C258.023 300.268 258.316 304.418 258.67 307.226C262.747 306.627 268.13 305.846 272.243 305.395Z" fill="white"/>
<path d="M265.566 298.12C264.724 298.242 263.943 298.291 263.003 298.486C262.527 298.584 262.063 298.279 261.941 297.815C261.819 297.339 261.721 296.887 261.599 296.411C261.465 295.886 261.819 295.361 262.356 295.288C263.223 295.178 264.089 295.081 264.956 294.958C265.396 294.897 265.823 295.178 265.945 295.605C266.091 296.13 266.177 296.496 266.299 296.997C266.445 297.51 266.103 298.034 265.566 298.12Z" fill="#3C7ECE"/>
<path d="M248.466 246.977C247.379 247.941 247.074 249.442 247.148 250.846C247.257 252.726 247.843 254.52 247.636 256.436C247.453 258.133 246.842 259.781 245.878 261.184C244.95 262.539 243.681 263.479 242.436 264.517C241.325 265.457 240.141 266.616 240.031 268.154C240.019 268.325 240.3 268.374 240.337 268.191C240.605 266.714 241.557 265.701 242.692 264.773C243.827 263.833 245.011 262.979 245.915 261.783C246.842 260.562 247.501 259.146 247.831 257.645C248.197 256.021 248.087 254.447 247.807 252.823C247.477 250.944 247.111 248.661 248.685 247.209C248.856 247.062 248.624 246.83 248.466 246.977Z" fill="#3E4E72"/>
<path d="M257.108 259.5C256.766 262.588 256.717 265.774 254.886 268.423C254.044 269.643 252.921 270.583 251.713 271.437C250.602 272.219 249.357 272.939 248.466 273.976C248.38 274.074 248.502 274.184 248.6 274.111C250.858 272.267 253.617 270.925 255.265 268.447C257.047 265.786 257.144 262.588 257.401 259.5C257.425 259.305 257.132 259.317 257.108 259.5Z" fill="#3E4E72"/>
<path d="M279.615 264.639C279.188 266.177 279.261 268.117 280.226 269.448C280.299 269.546 280.494 269.497 280.446 269.35C280.165 268.606 279.908 267.886 279.799 267.092C279.689 266.299 279.738 265.493 279.933 264.712C279.994 264.517 279.677 264.431 279.615 264.639Z" fill="#3E4E72"/>
<path d="M253.47 233.635C252.811 234.844 252.555 236.223 252.75 237.59C252.848 238.298 253.08 238.969 253.409 239.592C253.775 240.288 254.288 240.935 254.471 241.704C254.666 242.546 254.3 243.327 254.227 244.145C254.166 244.816 254.337 245.475 254.654 246.073C255.326 247.318 256.656 248.173 257.962 248.612C258.17 248.685 258.292 248.368 258.109 248.27C256.827 247.55 255.423 246.903 254.862 245.426C254.361 244.108 255.252 242.827 254.874 241.508C254.52 240.251 253.568 239.275 253.238 237.981C252.872 236.565 253.055 235.051 253.702 233.757C253.775 233.611 253.556 233.477 253.47 233.635Z" fill="#3E4E72"/>
<path d="M268.52 224.505C267.153 224.933 265.945 225.763 265.066 226.898C264.102 228.143 263.735 229.559 263.565 231.109C263.381 232.781 263.272 234.88 261.795 235.979C260.769 236.736 259.097 236.711 258.462 237.956C258.401 238.091 258.572 238.237 258.67 238.115C259.61 237.065 261.123 237.078 262.185 236.223C263.259 235.356 263.674 233.928 263.845 232.61C264.065 230.877 264.065 229.168 265.005 227.63C265.823 226.287 267.117 225.286 268.593 224.798C268.789 224.737 268.703 224.456 268.52 224.505Z" fill="#3E4E72"/>
<path d="M263.589 224.92C262.905 225.518 262.381 226.263 262.039 227.105C261.709 227.911 261.49 228.875 261.685 229.742C261.709 229.839 261.844 229.815 261.856 229.717C261.941 228.863 262.002 228.033 262.332 227.227C262.649 226.422 263.15 225.702 263.784 225.116C263.906 224.994 263.723 224.81 263.589 224.92Z" fill="#3E4E72"/>
<path d="M260.354 217.218C258.377 217.951 256.058 218.915 255.411 221.136C255.033 222.443 255.142 223.797 254.398 225.006C253.702 226.129 252.616 226.861 251.371 227.227C251.175 227.288 251.249 227.581 251.456 227.532C252.53 227.325 253.519 226.69 254.227 225.86C254.996 224.957 255.338 223.919 255.484 222.748C255.582 222.003 255.655 221.234 256.009 220.563C256.278 220.05 256.656 219.611 257.108 219.245C258.072 218.439 259.268 217.951 260.428 217.499C260.599 217.414 260.525 217.157 260.354 217.218Z" fill="#3E4E72"/>
<path d="M267.556 214.875C268.899 215.058 270.18 215.595 271.279 216.401C271.816 216.803 272.304 217.267 272.731 217.792C273.183 218.341 273.451 218.988 273.866 219.562C273.94 219.66 274.098 219.599 274.074 219.476C273.94 218.817 273.476 218.195 273.061 217.67C272.621 217.108 272.097 216.608 271.535 216.181C270.388 215.314 269.033 214.777 267.605 214.618C267.434 214.582 267.397 214.85 267.556 214.875Z" fill="#3E4E72"/>
<path d="M276.906 219.44C278.663 220.062 280.69 219.611 282.362 220.502C283.277 220.99 283.619 221.747 283.973 222.674C284.229 223.334 284.559 223.919 285.157 224.322C285.853 224.786 286.683 224.994 287.366 225.494C288.013 225.97 288.502 226.629 288.843 227.349C289.563 228.826 289.71 230.511 289.624 232.134C289.515 234.429 289.026 236.748 289.563 239.018C289.588 239.128 289.771 239.104 289.759 238.994C289.38 235.198 290.918 231.206 289.393 227.545C288.758 226.019 287.696 225.091 286.207 224.432C285.78 224.249 285.352 224.054 285.011 223.736C284.632 223.382 284.437 222.894 284.242 222.418C283.949 221.698 283.656 221.027 283.021 220.551C281.288 219.245 278.92 219.843 276.967 219.159C276.808 219.098 276.735 219.379 276.906 219.44Z" fill="#3E4E72"/>
<path d="M274.599 216.877C275.417 216.535 276.295 216.376 277.174 216.425C278.065 216.474 278.847 216.767 279.664 217.06C279.786 217.096 279.835 216.938 279.75 216.864C279.03 216.303 278.017 216.108 277.125 216.071C276.198 216.034 275.282 216.217 274.428 216.596C274.245 216.681 274.416 216.962 274.599 216.877Z" fill="#3E4E72"/>
<path d="M284.156 261.783C284.925 262.625 285.316 263.772 285.206 264.907C285.096 266.103 284.327 266.97 283.863 268.032C283.021 269.948 284.29 271.975 285.792 273.159C285.902 273.244 286.121 273.122 286.011 272.988C285.304 272.072 284.4 271.279 284.046 270.144C283.656 268.874 284.339 267.886 284.925 266.811C285.877 265.09 285.731 263.028 284.351 261.575C284.229 261.441 284.034 261.648 284.156 261.783Z" fill="#3E4E72"/>
<path d="M257.803 257.816C258.109 256.754 257.669 255.728 257.474 254.691C257.364 254.081 257.388 253.482 257.584 252.897C257.767 252.323 258.121 251.81 258.304 251.237C258.328 251.139 258.206 251.066 258.133 251.139C257.413 251.944 256.949 253.214 257.071 254.3C257.193 255.448 257.803 256.571 257.559 257.742C257.523 257.913 257.755 257.986 257.803 257.816Z" fill="#3E4E72"/>
<path d="M240.068 269.509C239.677 271.608 241.325 273.329 241.276 275.38C241.24 277.37 239.775 279.103 237.895 279.64C237.688 279.701 237.773 280.006 237.981 279.957C239.812 279.567 241.215 277.943 241.569 276.125C241.765 275.136 241.569 274.184 241.228 273.244C240.813 272.072 240.202 270.888 240.459 269.607C240.52 269.35 240.117 269.24 240.068 269.509Z" fill="#3E4E72"/>
<path d="M232.805 322.983C236.199 324.363 239.86 324.936 243.522 324.985C246.342 325.022 249.223 324.778 251.957 324.058C252.75 323.85 253.653 323.606 254.276 323.045C254.41 322.922 254.239 322.727 254.093 322.813C253.458 323.142 252.75 323.337 252.067 323.521C250.907 323.838 249.723 324.058 248.527 324.216C245.317 324.631 242.021 324.631 238.811 324.143C236.797 323.838 234.807 323.337 232.903 322.617C232.671 322.532 232.586 322.898 232.805 322.983Z" fill="#609BE2"/>
<path d="M307.409 327.658C312.938 318.113 318.528 308.605 324.18 299.133C325.644 296.68 327.158 294.067 327.158 291.211C327.146 289.087 326.291 286.988 326.596 284.876C327.134 281.3 330.942 278.395 330.173 274.867C331.808 274.831 332.468 277.028 332.223 278.639C331.967 280.262 331.369 282.069 332.321 283.412C336.044 278.932 339.84 274.233 343.563 269.741C344.259 268.899 345.223 267.971 346.273 268.264C346.651 269.167 346.053 270.168 345.467 270.974C343.099 274.245 340.731 277.516 338.363 280.787C339.083 280.384 339.742 279.896 340.231 279.237C342.733 275.893 345.223 272.548 347.725 269.192C348.018 268.789 348.335 268.374 348.775 268.142C349.214 267.91 349.825 267.91 350.154 268.288C350.606 268.801 350.301 269.594 349.959 270.18C347.249 274.904 343.258 278.822 340.585 283.57C343.416 280.726 346.749 278.187 349.861 275.649C350.02 275.514 350.191 275.38 350.398 275.356C350.813 275.307 351.155 275.746 351.228 276.161C351.375 277.003 350.874 277.809 350.313 278.456C349.751 279.103 349.092 279.701 348.811 280.507C349.056 279.957 349.922 280.128 350.325 280.568C350.728 281.007 350.716 281.715 350.459 282.264C350.203 282.801 349.739 283.216 349.287 283.619C343.88 288.44 338.473 293.274 333.066 298.095C332.321 298.755 331.528 299.511 331.381 300.488C329.465 313.145 323.679 324.521 319.383 336.581C318.174 339.974 316.746 343.416 314.159 345.919C311.571 348.421 307.531 349.751 304.272 348.226C301.123 346.761 299.804 343.587 298.62 340.316C298.706 340.023 298.742 339.596 298.901 339.34C301.403 335.336 304.113 331.467 307.006 327.732C307.25 327.439 307.201 328 307.409 327.658Z" fill="#603813"/>
<path d="M309.996 323.997C308.3 325.754 307.006 327.829 306.103 330.1C305.212 332.358 304.626 334.921 304.87 337.362C304.882 337.496 305.065 337.496 305.077 337.362C305.297 334.97 305.602 332.651 306.444 330.38C307.287 328.11 308.568 325.986 310.143 324.143C310.228 324.033 310.094 323.899 309.996 323.997Z" fill="#3F2108"/>
<path d="M348.897 280.36C347.395 281.251 345.943 282.215 344.552 283.265C343.892 283.766 343.233 284.266 342.599 284.791C341.964 285.328 341.256 285.853 340.768 286.536C340.694 286.634 340.829 286.756 340.926 286.695C341.598 286.28 342.171 285.682 342.769 285.169C343.453 284.596 344.136 284.022 344.844 283.473C346.187 282.435 347.591 281.483 349.031 280.58C349.165 280.494 349.043 280.275 348.897 280.36Z" fill="#3F2108"/>
<path d="M339.156 287.671C337.606 289.454 335.153 289.808 333.102 290.747C331.454 291.504 329.55 293.079 329.88 295.117C329.904 295.251 330.087 295.203 330.1 295.093C330.295 292.749 332.199 291.492 334.213 290.699C336.032 289.991 338.033 289.417 339.327 287.842C339.401 287.72 339.254 287.562 339.156 287.671Z" fill="#3F2108"/>
<path d="M335.8 282.643C336.593 283.143 337.301 283.753 337.936 284.437C338.253 284.779 338.534 285.133 338.79 285.511C339.059 285.902 339.279 286.329 339.559 286.707C339.633 286.805 339.816 286.756 339.779 286.622C339.645 286.158 339.376 285.767 339.108 285.377C338.827 284.974 338.522 284.596 338.192 284.242C337.533 283.534 336.752 282.936 335.91 282.447C335.788 282.362 335.678 282.557 335.8 282.643Z" fill="#3F2108"/>
<path d="M331.747 283.094C332.138 283.729 332.394 284.437 332.529 285.169C332.651 285.914 332.565 286.634 332.492 287.379C332.48 287.513 332.663 287.513 332.712 287.403C332.98 286.695 332.944 285.865 332.822 285.12C332.687 284.351 332.37 283.631 331.931 282.984C331.845 282.887 331.674 282.984 331.747 283.094Z" fill="#3F2108"/>
<path d="M268.105 239.372C268.862 238.506 269.9 237.92 271.035 237.688C271.584 237.578 272.133 237.541 272.682 237.59C273.256 237.651 273.818 237.834 274.379 237.981C274.623 238.042 274.867 237.7 274.648 237.529C273.635 236.736 272.097 236.687 270.888 236.968C269.607 237.273 268.484 237.993 267.702 239.055C267.519 239.287 267.91 239.592 268.105 239.372Z" fill="black"/>
<path d="M274.123 237.81C273.549 237.627 272.975 237.493 272.365 237.468C271.767 237.444 271.157 237.493 270.571 237.59C269.997 237.7 269.436 237.871 268.899 238.103C268.337 238.347 267.812 238.615 267.434 239.116C267.312 239.275 267.507 239.519 267.69 239.458C268.215 239.275 268.654 238.969 269.155 238.75C269.643 238.518 270.168 238.359 270.705 238.237C271.767 238.005 272.951 237.993 274.025 238.213C274.269 238.249 274.367 237.895 274.123 237.81Z" fill="black"/>
<path d="M271.877 240.153C271.364 240.727 271.218 241.569 271.328 242.302C271.376 242.656 271.499 242.997 271.767 243.242C272.036 243.486 272.463 243.596 272.756 243.303C272.902 243.156 272.951 242.961 272.975 242.753C273 242.546 273.012 242.338 273.024 242.119C273.036 241.691 273 241.276 272.927 240.861C272.866 240.507 272.817 240.007 272.402 239.885C271.975 239.763 271.621 240.044 271.499 240.434C271.364 240.849 271.401 241.337 271.462 241.752C271.523 242.18 271.682 242.595 271.889 242.985C272.011 243.217 272.365 243.217 272.499 242.985C272.853 242.351 272.805 241.533 272.414 240.922C272.292 240.727 272.023 240.739 271.901 240.922C271.755 241.13 271.694 241.386 271.73 241.643C271.767 241.911 271.914 242.131 272.133 242.277C272.39 242.448 272.634 242.082 272.451 241.874C272.329 241.728 272.255 241.423 272.377 241.289C272.219 241.264 272.06 241.252 271.914 241.228C272.17 241.679 272.133 242.192 271.901 242.631C272.109 242.631 272.304 242.631 272.512 242.631C272.243 242.167 272.097 241.63 272.097 241.093C272.097 240.91 272.084 240.593 272.231 240.483C272.267 240.446 272.243 240.459 272.267 240.483C272.292 240.52 272.304 240.605 272.304 240.654C272.316 240.739 272.341 240.837 272.353 240.922C272.438 241.496 272.451 242.143 272.329 242.717C272.316 242.766 272.304 242.79 272.292 242.827C272.292 242.827 272.304 242.802 272.316 242.802H272.329C272.292 242.814 272.292 242.814 272.329 242.802C272.316 242.79 272.414 242.851 272.329 242.802C272.341 242.814 272.377 242.839 272.316 242.802C272.255 242.766 272.267 242.778 272.206 242.717C272.158 242.668 272.097 242.57 272.084 242.546C272.036 242.424 272.011 242.277 271.987 242.155C271.901 241.569 272.048 241.02 272.292 240.483C272.341 240.361 272.341 240.227 272.219 240.141C272.133 240.056 271.975 240.044 271.877 240.153Z" fill="black"/>
<path d="M287.391 238.969C286.732 237.956 285.743 237.212 284.559 236.894C283.485 236.614 282.081 236.687 281.214 237.444C281.019 237.615 281.227 237.944 281.459 237.871C281.935 237.724 282.411 237.541 282.899 237.48C283.387 237.419 283.888 237.456 284.364 237.566C285.377 237.798 286.317 238.384 286.951 239.214C287.147 239.458 287.562 239.238 287.391 238.969Z" fill="black"/>
<path d="M281.776 238.103C282.716 237.883 283.766 237.895 284.705 238.127C285.181 238.249 285.633 238.408 286.072 238.64C286.512 238.872 286.903 239.177 287.379 239.36C287.549 239.433 287.72 239.189 287.623 239.043C287.33 238.579 286.854 238.298 286.365 238.066C285.877 237.822 285.365 237.639 284.84 237.529C283.766 237.309 282.728 237.37 281.691 237.737C281.446 237.81 281.544 238.152 281.776 238.103Z" fill="black"/>
<path d="M283.265 240.312C283.46 240.813 283.595 241.289 283.57 241.826C283.558 242.045 283.534 242.314 283.448 242.497C283.412 242.57 283.338 242.668 283.302 242.692C283.29 242.704 283.253 242.717 283.241 242.729C283.253 242.717 283.277 242.717 283.289 242.717C283.216 242.705 283.326 242.729 283.326 242.729C283.338 242.717 283.277 242.485 283.265 242.448C283.241 242.289 283.228 242.131 283.228 241.96C283.216 241.655 283.216 241.35 283.241 241.044C283.253 240.91 283.265 240.776 283.289 240.642C283.302 240.581 283.314 240.507 283.326 240.446L283.375 240.312C283.338 240.214 283.363 240.337 283.351 240.337C283.265 240.3 283.338 240.337 283.351 240.349C283.363 240.373 283.387 240.398 283.399 240.422C283.448 240.52 283.46 240.642 283.46 240.739C283.497 241.362 283.387 241.984 283.106 242.534C283.302 242.534 283.485 242.534 283.68 242.534C283.473 242.094 283.448 241.557 283.668 241.118C283.509 241.118 283.338 241.118 283.18 241.118C283.253 241.228 283.277 241.337 283.265 241.472C283.253 241.569 283.228 241.704 283.155 241.789C282.96 242.033 283.253 242.326 283.497 242.131C283.888 241.826 283.912 241.24 283.668 240.837C283.558 240.654 283.289 240.654 283.18 240.837C282.826 241.447 282.789 242.241 283.106 242.875C283.216 243.095 283.57 243.095 283.68 242.875C284.022 242.18 284.168 241.398 284.083 240.629C284.034 240.239 283.875 239.836 283.436 239.787C283.265 239.763 283.094 239.824 282.984 239.958C282.85 240.105 282.826 240.312 282.789 240.495C282.716 240.886 282.667 241.289 282.655 241.691C282.655 241.887 282.655 242.082 282.667 242.289C282.679 242.485 282.679 242.704 282.74 242.9C282.85 243.278 283.241 243.473 283.595 243.278C283.9 243.107 284.083 242.766 284.156 242.436C284.327 241.643 284.217 240.715 283.705 240.056C283.521 239.873 283.167 240.08 283.265 240.312Z" fill="black"/>
<path d="M279.225 240.898C278.993 242.412 279.591 243.827 280.397 245.085C280.775 245.683 281.593 246.403 281.263 247.172C280.983 247.819 280.14 248.331 280.177 249.1C280.189 249.332 280.47 249.406 280.604 249.21C280.824 248.881 281.007 248.539 281.263 248.222C281.471 247.953 281.678 247.672 281.813 247.355C282.118 246.586 281.739 246.061 281.3 245.463C280.336 244.157 279.396 242.643 279.567 240.947C279.567 240.752 279.249 240.715 279.225 240.898Z" fill="#3F2108"/>
<path d="M120.632 267.812L117.825 270.803L233.819 344.149L236.455 340.463L231.89 267.812H120.632Z" fill="#867D7B"/>
<path d="M117.825 270.803L229.437 270.62L233.819 344.149L121.34 344.32L117.825 270.803Z" fill="#ADA19F"/>
<path d="M163.805 318.174H186.96L180.478 366.437L152.05 365.387L163.805 318.174Z" fill="#867D7B"/>
<path d="M153.674 308.458C155.077 308.409 156.481 308.361 157.885 308.324C161.266 308.214 164.635 308.104 168.016 307.994C172.105 307.86 176.182 307.726 180.271 307.592C183.798 307.482 187.338 307.36 190.866 307.25C192.025 307.213 193.185 307.177 194.344 307.14C194.869 307.128 195.504 307.201 196.016 307.091C196.041 307.091 196.065 307.091 196.09 307.091C195.931 306.933 195.772 306.774 195.614 306.615C195.797 309.752 195.968 312.889 196.151 316.026C196.431 320.982 196.712 325.95 196.993 330.905C197.054 332.053 197.127 333.2 197.188 334.335C197.347 334.176 197.506 334.018 197.664 333.859C196.212 333.859 194.759 333.859 193.295 333.859C189.804 333.859 186.3 333.859 182.81 333.859C178.598 333.859 174.387 333.859 170.176 333.859C166.515 333.859 162.865 333.859 159.203 333.859C157.995 333.859 156.786 333.859 155.578 333.859C155.041 333.859 154.394 333.761 153.869 333.859C153.845 333.859 153.82 333.859 153.796 333.859C153.955 334.018 154.113 334.176 154.272 334.335C154.26 331.369 154.247 328.391 154.223 325.425C154.199 320.689 154.174 315.965 154.15 311.229C154.15 310.155 154.138 309.069 154.138 307.994C154.138 307.384 153.173 307.372 153.186 307.994C153.198 310.961 153.21 313.939 153.234 316.905C153.259 321.641 153.283 326.365 153.308 331.101C153.308 332.175 153.32 333.261 153.32 334.335C153.32 334.591 153.54 334.811 153.796 334.811C155.248 334.811 156.701 334.811 158.166 334.811C161.657 334.811 165.16 334.811 168.651 334.811C172.862 334.811 177.073 334.811 181.284 334.811C184.946 334.811 188.595 334.811 192.257 334.811C193.465 334.811 194.674 334.811 195.882 334.811C196.444 334.811 197.03 334.848 197.591 334.811C197.615 334.811 197.64 334.811 197.664 334.811C197.908 334.811 198.153 334.591 198.14 334.335C197.957 331.198 197.786 328.061 197.603 324.924C197.323 319.969 197.042 315.001 196.761 310.045C196.7 308.898 196.627 307.75 196.566 306.615C196.554 306.359 196.358 306.127 196.09 306.139C194.686 306.188 193.282 306.237 191.879 306.273C188.498 306.383 185.129 306.493 181.748 306.603C177.659 306.737 173.582 306.872 169.493 307.006C165.965 307.116 162.425 307.238 158.898 307.348C157.189 307.409 155.444 307.36 153.735 307.518C153.71 307.518 153.686 307.518 153.662 307.518C153.051 307.518 153.051 308.483 153.674 308.458Z" fill="#867D7B"/>
<path d="M122.744 276.186C127.565 276.137 132.374 276.088 137.196 276.027C137.879 276.015 138.551 276.015 139.234 276.003C139.075 275.844 138.917 275.685 138.758 275.526C138.966 279.786 139.173 284.034 139.368 288.294C139.393 288.892 139.429 289.49 139.454 290.088C139.612 289.93 139.771 289.771 139.93 289.612C135.169 289.869 130.421 290.125 125.661 290.381C124.977 290.418 124.294 290.454 123.61 290.491C123.769 290.65 123.928 290.808 124.086 290.967C123.83 286.5 123.574 282.032 123.317 277.565C123.281 276.942 123.244 276.32 123.208 275.697C123.171 275.087 122.219 275.087 122.255 275.697C122.512 280.165 122.768 284.632 123.024 289.1C123.061 289.722 123.098 290.345 123.134 290.967C123.147 291.211 123.342 291.455 123.61 291.443C128.371 291.187 133.119 290.93 137.879 290.674C138.563 290.638 139.246 290.601 139.93 290.564C140.174 290.552 140.418 290.357 140.406 290.088C140.198 285.828 139.991 281.581 139.796 277.321C139.771 276.723 139.735 276.125 139.71 275.526C139.698 275.27 139.503 275.05 139.234 275.05C134.413 275.099 129.604 275.148 124.782 275.209C124.099 275.221 123.427 275.221 122.744 275.234C122.121 275.246 122.121 276.198 122.744 276.186Z" fill="#867D7B"/>
<path d="M53.9628 354.988H67.8533C74.0661 352.351 78.4115 346.285 78.4115 339.23C78.4115 335.8 78.0087 333.053 77.2763 330.844H44.5154C43.7952 333.053 43.4046 335.8 43.4046 339.23C43.3924 346.297 47.7377 352.351 53.9628 354.988Z" fill="#867D7B"/>
<path d="M49.2147 336.361C55.7693 336.74 62.446 337.118 68.8908 335.605C69.0128 335.58 68.964 335.385 68.842 335.409C62.3606 336.679 55.7693 336.447 49.2147 336.142C49.0682 336.154 49.0682 336.361 49.2147 336.361Z" fill="#ADA19F"/>
<path d="M45.2477 342.391C49.0072 343.624 53.1206 344.332 57.0876 343.929C57.1852 343.917 57.1852 343.77 57.0876 343.77C53.0718 343.734 49.1658 343.368 45.3087 342.147C45.1623 342.098 45.089 342.342 45.2477 342.391Z" fill="#ADA19F"/>
<path d="M60.3954 344.1C66.4252 344.393 72.8211 343.465 78.3016 340.829C78.3993 340.78 78.326 340.621 78.2284 340.658C75.4088 341.708 72.5648 342.635 69.5987 343.184C66.5594 343.746 63.4713 343.966 60.3954 343.844C60.2367 343.831 60.2367 344.088 60.3954 344.1Z" fill="#ADA19F"/>
<path d="M49.3978 349.153C57.1608 350.508 65.2412 350.288 72.8577 348.201C73.0286 348.152 72.9554 347.896 72.7845 347.933C65.1313 349.763 57.2462 350.203 49.471 348.909C49.3123 348.897 49.2391 349.129 49.3978 349.153Z" fill="#ADA19F"/>
<path d="M53.145 352.803C58.0885 353.096 63.1051 353.157 68.0364 352.669C68.1584 352.656 68.1706 352.461 68.0364 352.461C63.0685 352.644 58.1129 352.754 53.145 352.461C52.9253 352.449 52.9253 352.791 53.145 352.803Z" fill="#E4E8F4"/>
<path d="M65.3388 324.009C67.0477 322.593 69.5865 322.288 71.5761 323.24C73.8098 324.314 75.2135 325.815 77.6913 325.889C78.4481 325.913 79.4246 326.694 80.1691 326.706C82.3174 326.767 83.9042 328.672 85.0882 330.466C86.2721 332.26 87.5904 334.274 89.6898 334.738C87.8711 334.201 85.6618 335.104 83.7699 334.994C82.1953 334.897 80.7672 334.079 79.2415 333.725C77.789 333.395 76.2632 333.481 74.8107 333.163C72.2596 332.59 70.1724 330.795 68.2317 329.025C66.7181 327.646 65.1801 326.072 65.3388 324.009Z" fill="#74AA51"/>
<path d="M67.3772 324.436C71.0268 324.741 73.8952 327.158 76.8125 329.123C77.5082 329.587 78.2162 330.014 78.9974 330.307C79.864 330.637 80.7672 330.844 81.6095 331.198C83.1962 331.869 84.6732 332.797 86.3698 333.188C86.4675 333.212 86.5163 333.053 86.4186 333.029C84.6976 332.565 83.1962 331.638 81.5606 330.966C80.6574 330.6 79.7053 330.393 78.8021 330.026C77.8744 329.648 77.0566 329.087 76.2388 328.513C73.5413 326.633 70.7705 324.546 67.3772 324.338C67.3162 324.338 67.3162 324.424 67.3772 324.436Z" fill="#90CC6A"/>
<path d="M57.234 325.828C55.7815 321.897 51.0334 319.529 47.0176 320.75C45.2965 321.275 43.722 322.361 41.9155 322.459C40.3165 322.544 38.7907 321.836 37.2284 321.543C34.0426 320.945 30.5883 322.19 28.5133 324.68C26.4871 327.121 25.7547 330.563 23.3257 332.602C25.5472 329.831 28.8428 329.489 32.3826 329.794C35.9223 330.1 39.3644 331.235 42.9164 331.381C47.8964 331.552 53.5966 329.221 57.234 325.828Z" fill="#4B742A"/>
<path d="M23.7407 313.353C26.1575 315.465 29.9414 314.427 32.9929 315.416C36.5814 316.588 38.7419 320.42 42.245 321.824C45.2843 323.045 48.763 322.227 51.9976 322.813C54.39 323.24 56.8556 324.631 58.5157 326.413C59.4189 323.337 59.1138 319.834 57.3195 317.161C55.5252 314.488 52.1929 312.828 49.0316 313.402C47.5424 313.67 45.9923 314.378 44.613 313.78C43.9661 313.499 43.4656 312.962 42.9408 312.486C41.4028 311.07 39.5109 310.045 37.4847 309.52C35.8979 309.117 34.1891 309.032 32.6511 309.606C29.8559 310.643 27.7809 313.756 24.8148 313.56" fill="#74AA51"/>
<path d="M58.0274 324.973C56.0989 322.398 54.0727 319.444 54.5365 316.258C54.8905 313.829 56.697 311.473 55.9036 309.142C55.3421 307.506 53.6699 306.518 52.8277 305.016C51.6315 302.868 52.3516 300.195 53.0962 297.851C53.2915 299.877 55.0492 301.098 56.8556 302.038C58.6621 302.978 60.6883 303.6 62.2141 304.955C64.7651 307.201 65.3754 311.095 64.399 314.342C64.1182 315.257 63.7276 316.209 63.9107 317.149C64.045 317.833 64.4722 318.418 64.7529 319.065C65.6562 321.092 64.9482 323.704 63.1539 324.997C61.3353 326.304 59.3579 326.743 58.0274 324.973Z" fill="#568336"/>
<path d="M55.3543 321.946C54.0116 320.274 52.254 318.968 50.2644 318.15C47.9819 317.198 45.1623 317.418 43.1483 315.867C42.2694 315.184 41.4883 314.537 40.4385 314.134C39.4132 313.744 38.3269 313.56 37.2406 313.487C35.9711 313.402 34.6895 313.463 33.4201 313.499C31.9065 313.548 30.4662 313.463 28.9649 313.207C28.8306 313.182 28.7696 313.377 28.9039 313.414C31.2962 314.134 33.9083 313.707 36.3617 313.756C37.5945 313.78 38.8396 313.914 40.0113 314.305C41.2319 314.708 42.0742 315.452 43.075 316.209C44.8937 317.576 47.2983 317.442 49.3856 318.138C51.6559 318.907 53.6333 320.298 55.2078 322.08C55.2933 322.202 55.4275 322.056 55.3543 321.946Z" fill="#90CC6A"/>
<path d="M53.4257 323.765C51.4484 323.374 49.4954 323.35 47.5302 323.777C46.566 323.984 45.6139 324.302 44.7106 324.705C43.6975 325.156 42.7333 325.73 41.6836 326.072C39.3888 326.816 36.9598 326.157 34.6163 326.426C32.5168 326.67 30.4418 327.39 28.5255 328.244C28.4278 328.281 28.5011 328.44 28.5987 328.415C30.7836 327.732 32.883 326.841 35.19 326.658C37.2528 326.499 39.3644 326.975 41.3906 326.426C43.2825 325.913 44.9426 324.778 46.8467 324.277C48.9461 323.716 51.2287 323.606 53.3769 323.96C53.499 323.997 53.56 323.789 53.4257 323.765Z" fill="#90CC6A"/>
<path d="M58.6133 322.752C57.4293 320.664 57.4904 318.235 58.6499 316.148C59.5898 314.464 60.5663 313.011 60.5297 311.009C60.5052 309.398 59.9194 307.787 58.8208 306.603C57.5758 305.236 55.7327 304.394 55.0247 302.599C54.9759 302.49 54.805 302.526 54.8416 302.648C55.3055 304.284 56.7702 305.199 57.9664 306.273C59.4921 307.653 60.3832 309.606 60.2123 311.681C60.0292 313.939 58.3082 315.465 57.6979 317.564C57.173 319.358 57.4537 321.287 58.3814 322.898C58.4668 323.032 58.6988 322.898 58.6133 322.752Z" fill="#90CC6A"/>
<path d="M58.6865 325.376C57.4659 322.837 57.8687 319.602 59.6752 317.442C61.6892 315.013 65.2778 313.768 66.1322 310.741C66.3885 309.813 66.3519 308.825 66.6082 307.897C67.3528 305.26 70.1968 303.893 72.7723 302.99C75.3478 302.075 78.2406 301.074 79.4734 298.633C78.2406 300.72 78.6922 303.71 77.9598 306.017C77.3618 307.921 75.897 309.435 74.9938 311.217C74.1272 312.901 73.7732 314.818 72.931 316.514C71.4296 319.493 68.5734 321.507 65.7904 323.35C63.5934 324.814 61.1766 326.218 58.6865 325.376Z" fill="#74AA51"/>
<path d="M90.825 314.22C89.519 314.952 87.8589 314.513 86.5285 313.829C85.1858 313.145 83.9164 312.242 82.4273 312.023C79.6809 311.632 77.1909 313.744 74.4323 314.098C73.1019 314.268 71.7348 314.024 70.4287 314.329C68.8542 314.683 67.5603 315.782 66.4252 316.917C64.3623 318.968 62.5559 321.299 61.0911 323.814C60.6883 324.509 60.0536 325.29 60.4076 326.011C60.7616 326.731 61.4573 327.231 62.1897 327.549C63.984 328.33 66.0956 328.159 67.8777 327.365C69.6598 326.572 71.1489 325.217 72.3573 323.679C73.7244 321.934 74.9816 319.798 77.1176 319.224C78.7777 318.785 80.5963 319.407 82.2075 318.833C82.9765 318.553 83.6234 318.028 84.3314 317.625C86.6872 316.307 89.7265 316.673 90.825 314.22Z" fill="#568336"/>
<path d="M92.2043 324.363C90.349 326.633 87.5904 328.452 84.6732 328.195C82.3662 328 80.2912 326.56 77.9721 326.487C75.3478 326.413 73.0286 328.098 70.502 328.794C66.5228 329.892 61.9334 328.232 59.5654 324.839C62.092 321.519 66.6205 320.2 70.7827 319.895C73.8342 319.676 77.1298 319.59 79.6931 321.275C80.5597 321.848 81.3043 322.593 82.1343 323.215C84.7586 325.168 89.1162 325.388 92.2043 324.363Z" fill="#4B742A"/>
<path d="M59.8339 322.996C61.2864 318.687 65.0459 315.892 68.3049 312.987C69.1471 312.242 69.9527 311.461 70.5996 310.533C71.2587 309.606 71.7714 308.58 72.4427 307.665C73.7854 305.846 75.4698 304.272 76.4951 302.245C76.5562 302.123 76.3853 302.026 76.312 302.136C75.2013 304.137 73.5657 305.712 72.223 307.543C71.5029 308.532 70.9658 309.642 70.2334 310.631C69.4767 311.656 68.5124 312.499 67.5603 313.329C64.4234 316.05 60.9813 318.833 59.6996 322.947C59.6996 323.032 59.8095 323.069 59.8339 322.996Z" fill="#90CC6A"/>
<path d="M63.7276 322.507C66.828 319.432 70.8071 317.649 75.1525 317.259C76.2388 317.161 77.3251 317.076 78.3871 316.771C79.4246 316.478 80.4255 316.05 81.4874 315.794C83.8188 315.245 86.3698 315.428 88.75 315.22C88.872 315.208 88.8842 315.013 88.75 315.025C87.4928 315.05 86.2477 315.111 84.9905 315.172C83.8798 315.22 82.7568 315.245 81.6705 315.452C80.5231 315.684 79.4368 316.16 78.3016 316.478C76.9956 316.844 75.6407 316.868 74.298 317.027C70.2334 317.491 66.4008 319.407 63.6056 322.385C63.5323 322.459 63.6544 322.581 63.7276 322.507Z" fill="#90CC6A"/>
<path d="M64.9848 323.63C66.8402 322.984 68.7565 322.605 70.7339 322.678C72.8699 322.764 74.7497 323.508 76.7881 324.033C78.6678 324.521 80.5719 324.753 82.4273 325.388C84.0018 325.937 85.6863 326.56 87.3219 325.913C87.4073 325.876 87.3829 325.73 87.2853 325.766C85.2835 326.365 83.3793 325.388 81.4996 324.802C79.571 324.204 77.5448 324.021 75.6163 323.435C73.822 322.886 72.0888 322.434 70.1968 322.434C68.3903 322.434 66.5838 322.764 64.9116 323.472C64.8384 323.521 64.8994 323.667 64.9848 323.63Z" fill="#90CC6A"/>
<path d="M106.607 318.675C106.4 309.032 108.463 299.414 112.491 290.662C113.626 288.209 114.907 285.828 116.299 283.509C116.372 283.387 116.189 283.277 116.104 283.399C110.733 291.394 107.523 300.915 106.571 310.485C106.302 313.206 106.217 315.941 106.302 318.675C106.327 318.858 106.607 318.858 106.607 318.675Z" fill="#AF8E54"/>
<path d="M106.217 317.772C104.361 309.386 103.422 300.781 103.336 292.188C103.263 283.595 104.044 275.002 105.741 266.567C106.681 261.868 107.901 257.217 109.354 252.652C109.39 252.53 109.195 252.482 109.158 252.604C106.4 260.745 104.606 269.192 103.678 277.736C102.75 286.329 102.738 295.007 103.641 303.613C104.142 308.397 104.984 313.133 106.058 317.82C106.083 317.918 106.229 317.869 106.217 317.772Z" fill="#AF8E54"/>
<path d="M90.6541 267.739C93.9131 273.085 96.3299 278.908 98.0876 284.913C99.8452 290.906 100.944 297.058 101.847 303.234C102.372 306.811 102.787 310.387 103.202 313.975C103.214 314.061 103.348 314.061 103.336 313.975C102.787 307.665 102.067 301.379 100.883 295.154C99.6988 288.941 98.0754 282.789 95.6708 276.942C94.3281 273.696 92.7413 270.571 90.886 267.605C90.8006 267.458 90.5687 267.593 90.6541 267.739Z" fill="#AF8E54"/>
<path d="M111.856 288.55C111.844 288.16 111.746 287.781 111.771 287.391C111.795 286.805 112.076 286.28 112.344 285.755C113.211 284.095 114.09 282.435 114.956 280.775C115.188 280.323 115.432 279.872 115.762 279.493C116.043 279.164 116.384 278.895 116.629 278.541C116.983 278.017 117.08 277.345 117.324 276.759C117.788 275.661 118.777 274.88 119.729 274.147C120.278 273.72 120.852 273.281 121.523 273.097C122.194 272.914 123 273.036 123.439 273.586C123.903 274.172 123.806 275.014 123.562 275.71C123.317 276.405 122.939 277.077 122.89 277.821C122.841 278.578 123.159 279.323 123.11 280.079C123.024 281.8 121.242 282.911 120.608 284.51C120.412 284.986 120.327 285.499 120.046 285.926C119.656 286.5 118.972 286.793 118.398 287.183C117.19 288.013 116.409 289.319 115.457 290.418C114.883 291.077 112.405 293.738 111.392 293.201C110.147 292.566 111.88 289.576 111.856 288.55Z" fill="#74AA51"/>
<path d="M104.203 264.749C104.117 264.199 103.885 263.674 103.776 263.125C103.617 262.332 103.715 261.49 104.056 260.757C104.203 260.428 104.41 260.122 104.484 259.781C104.667 258.987 104.191 258.182 104.154 257.364C104.117 256.644 104.435 255.948 104.74 255.301C105.826 252.982 105.777 251.261 108.206 248.454C108.792 247.77 109.122 246.83 109.927 246.415C111.429 245.646 113.333 246.83 113.968 248.392C114.59 249.955 114.309 251.725 114.029 253.385C113.87 254.3 113.711 255.216 113.553 256.131C113.418 256.912 113.272 257.706 112.991 258.45C112.674 259.292 112.186 260.061 111.697 260.818C110.526 262.649 109.354 264.468 108.182 266.299C107.498 267.373 106.412 269.948 104.752 268.935C103.434 268.13 104.398 265.994 104.203 264.749Z" fill="#74AA51"/>
<path d="M91.7405 274.831C91.3987 274.648 90.9959 274.574 90.6785 274.342C89.8485 273.757 89.9217 272.512 89.4335 271.621C88.75 270.376 86.9679 269.851 86.6383 268.471C86.5163 267.947 86.6261 267.397 86.5407 266.86C86.3332 265.457 84.8685 264.541 84.5511 263.162C84.2704 261.99 84.8807 260.806 85.4788 259.756C85.7839 259.207 86.1013 258.646 86.6139 258.279C87.9322 257.303 89.9706 258.145 90.7395 259.598C90.9471 259.988 91.0935 260.415 91.3987 260.733C91.9724 261.331 92.9366 261.355 93.5714 261.868C95.0727 263.064 93.9253 265.774 95.1947 267.202C95.4877 267.544 95.9027 267.776 96.2079 268.117C97.2332 269.277 96.574 270.791 96.6961 272.133C96.8426 273.696 97.8313 274.892 97.0379 276.43C95.1337 280.116 93.4127 275.722 91.7405 274.831Z" fill="#74AA51"/>
<path d="M115.457 367.865H92.424L97.4895 307.75C97.5993 306.493 98.649 305.517 99.9185 305.517H108.927C110.208 305.517 111.27 306.505 111.356 307.787L115.457 367.865Z" fill="#ABB6D8"/>
<path d="M99.6255 302.905C99.1861 304.638 100.199 306.2 101.432 307.335C102.701 308.507 104.325 309.215 105.558 310.436C106.18 311.046 106.668 311.778 106.815 312.645C106.998 313.707 106.717 314.793 106.742 315.855C106.766 317.601 107.633 319.224 108.963 320.335C110.587 321.69 112.845 322.3 114.944 322.08C115.567 322.019 115.603 321.055 114.944 321.079C113.125 321.128 111.282 320.908 109.769 319.81C108.365 318.785 107.559 317.198 107.596 315.465C107.62 314.513 107.779 313.573 107.633 312.621C107.511 311.864 107.193 311.18 106.717 310.57C105.79 309.374 104.435 308.593 103.19 307.787C101.652 306.786 99.7476 305.126 100.236 303.075C100.333 302.673 99.7232 302.502 99.6255 302.905Z" fill="#E4E8F4"/>
<path d="M93.7422 315.916C92.7169 320.567 95.4755 325.657 99.9185 327.365C101.249 327.878 102.677 328 104.044 328.391C105.509 328.818 106.595 329.648 107.389 330.954C108.072 332.077 108.548 333.31 109.232 334.433C109.94 335.592 110.843 336.654 111.917 337.496C114.358 339.425 117.788 340.194 120.595 338.595C120.864 338.436 120.681 337.936 120.376 338.07C117.788 339.169 114.81 338.717 112.564 337.057C111.478 336.251 110.574 335.202 109.866 334.054C109.207 332.98 108.756 331.796 108.109 330.71C107.498 329.66 106.693 328.733 105.594 328.183C104.423 327.585 103.116 327.402 101.835 327.134C99.4791 326.621 97.4651 325.425 96.0492 323.435C94.5478 321.336 93.8643 318.663 94.4258 316.112C94.5356 315.648 93.8399 315.452 93.7422 315.916Z" fill="#E4E8F4"/>
<path d="M89.226 343.77C91.24 345.101 93.7666 344.527 95.8295 343.624C98.1242 342.623 100.358 341.061 102.982 341.305C105.411 341.524 107.486 343.123 108.414 345.357C108.914 346.553 109.158 347.847 109.488 349.092C109.757 350.117 110.111 351.118 110.562 352.083C111.514 354.084 113.101 356.184 115.432 356.526C115.86 356.587 116.006 356.05 115.615 355.879C113.589 355.024 112.186 353.462 111.258 351.497C110.257 349.373 110.037 347.005 109.085 344.869C108.17 342.818 106.351 341.28 104.178 340.719C101.847 340.121 99.6744 340.89 97.5871 341.915C95.1581 343.111 92.1921 344.783 89.4945 343.319C89.1894 343.16 88.9453 343.575 89.226 343.77Z" fill="#E4E8F4"/>
<path d="M560 351.863H0V377.459H560V351.863Z" fill="#1C1E3D"/>
<path d="M57.2462 325.242C55.9524 324.192 54.0971 324.143 52.4859 324.546C49.1048 325.4 46.2364 328.098 45.1867 331.43C44.5154 333.566 44.552 335.861 44.1614 338.058C43.5267 341.598 41.7812 344.844 40.8291 348.323C39.8771 351.802 39.9015 355.903 42.3427 358.54C41.4761 357.356 41.9887 355.879 42.5014 354.499C45.1379 347.457 48.7142 340.511 54.4633 335.653C56.3796 334.03 58.6987 332.37 58.9551 329.868C59.1382 327.976 58.7232 326.45 57.2462 325.242Z" fill="#568336"/>
<path d="M71.9179 348.445C72.0521 346.797 70.6851 345.418 69.2814 344.515C67.8899 343.612 66.2787 342.855 65.4609 341.415C64.6187 339.938 64.8018 338.07 64.0084 336.569C63.2638 335.153 61.7869 334.298 60.6395 333.188C58.8208 331.442 57.7711 328.928 57.7955 326.401C57.8199 324.753 58.4058 323.313 59.8705 322.556C61.3353 321.8 63.1051 321.897 64.7163 322.3C67.719 323.045 70.6729 325.034 71.454 328.037C71.9545 329.978 71.4907 332.028 71.5883 334.03C71.7104 336.63 72.7845 339.083 73.3338 341.634C73.8952 344.161 73.7122 346.553 71.9179 348.445Z" fill="#4B742A"/>
<path d="M55.4519 327.048C50.9845 329.196 48.0429 333.102 46.6026 337.777C45.7604 340.511 44.6496 343.062 43.5145 345.687C42.5136 347.994 41.5615 350.459 41.5493 353.01C41.5493 353.108 41.6836 353.096 41.6958 353.01C42.2206 347.798 45.2111 343.355 46.7124 338.412C47.4692 335.946 48.4213 333.652 50.0569 331.625C51.5338 329.794 53.4258 328.256 55.5008 327.146C55.5618 327.109 55.513 327.011 55.4519 327.048Z" fill="#90CC6A"/>
<path d="M90.1048 341.195C87.566 343.465 83.4037 343.624 80.7062 341.549C79.1682 340.377 78.1063 338.607 76.3853 337.728C73.1019 336.068 68.7321 338.278 65.5707 336.373C63.984 335.421 63.1173 333.639 61.8601 332.272C60.6517 330.966 59.0649 330.026 58.1006 328.525C57.1364 327.036 57.1852 324.631 58.8086 323.899C62.2385 322.349 65.8881 320.725 68.7077 323.215C70.2334 324.558 71.1367 326.487 72.6991 327.793C74.9816 329.685 78.4481 330.063 80.1447 332.504C80.8893 333.591 81.1578 334.921 81.6827 336.117C83.0253 339.242 86.7238 341.134 90.1048 341.195Z" fill="#699D46"/>
<path d="M59.2724 325.437C61.4573 325.327 63.63 325.864 65.4853 327.036C66.413 327.622 67.2308 328.342 67.9265 329.184C68.5978 330.002 69.1715 330.917 69.9527 331.65C71.393 332.98 73.3704 333.237 75.1525 333.871C77.3862 334.677 78.7654 336.447 80.3034 338.156C81.6461 339.657 83.5136 341.305 85.6863 341.109C85.7961 341.097 85.7961 340.951 85.6863 340.939C81.0358 340.694 79.5466 335.336 75.5553 333.749C73.5047 332.944 71.271 332.748 69.6964 331.027C68.9762 330.246 68.4147 329.343 67.6946 328.562C67.0477 327.866 66.3153 327.256 65.4975 326.755C63.63 325.608 61.4573 325.059 59.2724 325.205C59.126 325.229 59.126 325.449 59.2724 325.437Z" fill="#90CC6A"/>
<path opacity="0.5" d="M514.935 600.622C514.899 606.261 476.23 610.13 447.143 609.923C418.056 609.727 406.277 605.028 409.622 599.889C414.675 592.114 433.253 593.066 462.327 593.261C491.402 593.469 514.972 594.97 514.935 600.622Z" fill="#BED3E3"/>
<path d="M438.196 580.921L437.83 563.65L451.244 564.626L448.559 583.191L442.395 586.328L438.196 580.921Z" fill="#603813"/>
<path d="M437.061 590.564C437.732 589.441 437.989 588.062 437.744 586.768C437.671 586.353 437.549 585.926 437.671 585.523C437.745 585.303 437.891 585.096 437.94 584.864C438.05 584.351 437.659 583.875 437.464 583.387C437.122 582.52 437.439 581.446 438.196 580.909C441.541 581.727 444.812 581.544 448.193 580.921C448.705 580.823 449.487 580.921 449.45 581.446C449.438 581.714 449.182 581.91 449.169 582.178C449.157 582.508 449.523 582.715 449.67 583.021C450.012 583.753 448.913 584.388 448.791 585.193C448.742 585.486 448.84 585.791 448.901 586.084C449.047 586.756 449.023 587.439 449.011 588.123C448.95 590.466 448.901 592.81 448.84 595.141C448.828 595.483 448.815 595.849 448.608 596.118C448.364 596.447 447.924 596.533 447.522 596.606C445.41 596.984 443.249 597.35 441.126 597.021C439.002 596.679 436.89 595.495 436.023 593.53C435.792 593.005 435.657 592.407 435.804 591.846C435.95 591.284 436.487 590.552 437.061 590.564Z" fill="white"/>
<path d="M449.889 600.792C447.473 601.659 444.824 601.83 442.31 601.305C441.138 601.061 439.942 600.658 438.758 600.841C437.757 601 436.866 601.561 435.914 601.903C434.4 602.44 432.764 602.428 431.165 602.404C428.578 602.367 425.99 602.33 423.39 602.282C421.242 602.245 418.532 601.806 417.983 599.718C417.592 598.217 418.715 596.667 420.095 595.971C421.486 595.275 423.085 595.19 424.623 594.982C429.139 594.348 433.643 592.261 436.206 588.501C437.439 588.281 439.014 588.867 439.636 589.941C440.259 591.028 440.137 592.492 439.331 593.444C442.883 594.03 446.691 592.859 449.291 590.369C449.95 591.955 450.524 593.567 451.037 595.202C451.22 595.776 451.391 596.362 451.427 596.96C451.598 599.23 452.038 600.024 449.889 600.792Z" fill="#191C26"/>
<path d="M457.457 548.465C458.019 548.612 458.58 548.77 459.142 548.917C459.569 554.361 459.41 559.853 458.678 565.261C458.605 565.834 458.507 566.433 458.141 566.872C457.775 567.324 457.189 567.555 456.615 567.714C453.93 568.483 451.073 568.324 448.278 568.117C442.297 567.653 436.341 566.884 430.433 565.834C430.043 565.761 429.615 565.676 429.359 565.358C429.164 565.114 429.115 564.797 429.078 564.492C428.505 559.756 428.444 554.959 428.907 550.211C428.968 549.564 429.054 548.892 429.444 548.368C429.835 547.855 430.641 547.599 431.141 548.001C431.678 539.347 432.386 530.107 432.069 521.441C431.837 515.07 431.178 508.539 432.972 502.424C441.541 500.618 450.658 501.521 458.714 504.987C457.604 519.232 457.018 534.184 457.457 548.465Z" fill="#191C26"/>
<path d="M431.922 548.783C436.109 549.515 440.344 549.893 444.592 549.954C446.704 549.991 448.828 549.942 450.939 549.82C452.502 549.723 454.54 549.637 455.675 548.404C455.761 548.307 455.675 548.111 455.541 548.172C454.748 548.49 453.979 548.831 453.124 549.015C452.282 549.185 451.415 549.246 450.549 549.295C448.498 549.405 446.435 549.454 444.372 549.417C440.235 549.356 436.121 548.99 432.032 548.392C431.776 548.355 431.654 548.734 431.922 548.783Z" fill="#4F4F68"/>
<path d="M489.352 576.258L487.313 559.719L500.264 559.365L499.495 577.418L493.892 581.019L489.352 576.258Z" fill="#603813"/>
<path d="M489.193 585.608C489.73 584.461 489.84 583.118 489.486 581.91C489.376 581.519 489.217 581.129 489.303 580.726C489.351 580.506 489.474 580.299 489.498 580.067C489.559 579.566 489.132 579.151 488.9 578.7C488.485 577.906 488.68 576.844 489.352 576.246C492.635 576.71 495.747 576.21 498.933 575.282C499.421 575.135 500.166 575.148 500.19 575.66C500.203 575.917 499.971 576.136 499.995 576.393C500.02 576.71 500.386 576.869 500.557 577.149C500.959 577.821 499.971 578.529 499.922 579.31C499.91 579.603 500.032 579.871 500.117 580.152C500.325 580.775 500.374 581.446 500.422 582.105C500.593 584.351 500.764 586.609 500.935 588.855C500.959 589.185 500.984 589.539 500.813 589.819C500.605 590.149 500.19 590.283 499.824 590.393C497.835 590.954 495.796 591.528 493.733 591.406C491.671 591.284 489.535 590.356 488.509 588.562C488.241 588.074 488.045 587.525 488.131 586.975C488.216 586.414 488.631 585.645 489.193 585.608Z" fill="white"/>
<path d="M502.485 594.165C500.252 595.227 497.725 595.654 495.272 595.397C494.124 595.275 492.94 595.007 491.817 595.3C490.877 595.544 490.072 596.166 489.193 596.594C487.801 597.253 486.227 597.399 484.689 597.534C482.199 597.741 479.721 597.961 477.231 598.168C475.168 598.339 472.519 598.18 471.799 596.24C471.274 594.836 472.202 593.237 473.459 592.444C474.717 591.638 476.254 591.406 477.707 591.052C481.967 590.002 486.093 587.573 488.18 583.716C489.339 583.387 490.902 583.789 491.61 584.766C492.318 585.742 492.33 587.158 491.658 588.159C495.125 588.379 498.653 586.878 500.911 584.241C501.692 585.694 502.4 587.195 503.047 588.709C503.279 589.246 503.498 589.783 503.596 590.356C503.962 592.505 504.463 593.213 502.485 594.165Z" fill="#191C26"/>
<path d="M503.816 543.107C504.389 543.204 504.963 543.29 505.537 543.388C506.513 548.758 506.916 554.239 506.721 559.695C506.696 560.268 506.66 560.879 506.355 561.355C506.037 561.843 505.476 562.124 504.926 562.343C502.327 563.369 499.47 563.515 496.675 563.576C490.682 563.711 484.677 563.552 478.696 563.1C478.293 563.076 477.866 563.027 477.585 562.734C477.365 562.514 477.292 562.197 477.219 561.892C476.169 557.241 475.632 552.469 475.608 547.696C475.608 547.049 475.62 546.366 475.962 545.817C476.303 545.267 477.072 544.926 477.622 545.292C477.292 536.625 477.048 527.361 475.876 518.768C475.009 512.445 473.691 506.025 474.863 499.751C483.212 497.09 492.379 497.078 500.728 499.702C501.033 513.996 501.948 528.936 503.816 543.107Z" fill="#191C26"/>
<path d="M478.476 545.987C482.76 546.293 487.069 546.244 491.341 545.865C493.404 545.682 495.467 545.426 497.505 545.096C499.043 544.84 501.033 544.535 502.046 543.204C502.131 543.082 501.96 542.96 501.851 543.009C501.045 543.424 500.288 543.864 499.422 544.12C498.628 544.352 497.81 544.498 496.98 544.62C494.905 544.95 492.806 545.206 490.719 545.377C486.654 545.719 482.565 545.768 478.476 545.585C478.22 545.572 478.22 545.975 478.476 545.987Z" fill="#4F4F68"/>
<path d="M429.737 340.548C417.238 389.946 421.742 443.298 402.957 490.67C409.768 500.74 419.704 506.562 431.776 507.966C447.631 509.809 463.438 502.656 479.343 503.974C487.679 504.67 495.662 507.673 503.95 508.845C512.238 510.029 521.575 509.003 527.41 503.01C523.87 454.613 516.693 400.528 504.646 353.523C496.712 348.14 487.569 348.213 479.636 342.83C476.035 340.389 472.373 337.924 468.26 336.532C463.804 335.031 459.032 334.86 454.332 334.945C446.777 335.08 437.171 339.156 429.737 340.548Z" fill="#7A86DE"/>
<path d="M435.865 209.809C432.41 209.516 429.298 212.482 428.077 215.473C427.382 217.169 427.186 219.025 427.467 220.831C427.772 222.796 428.724 224.408 429.774 226.068C430.36 226.995 430.921 227.947 431.202 229.009C431.519 230.206 431.397 231.255 430.909 232.378C430.873 232.464 430.982 232.573 431.056 232.488C432.008 231.292 431.739 229.449 431.226 228.118C430.555 226.397 429.335 224.981 428.578 223.309C426.991 219.806 427.552 215.595 430.177 212.751C431.617 211.189 433.704 209.956 435.877 210.017C436.011 210.029 435.999 209.821 435.865 209.809Z" fill="#6C3939"/>
<path d="M426.808 233.55C427.614 234.734 428.761 235.735 430.189 236.064C431.458 236.357 432.948 236.052 433.802 235.015C433.875 234.929 433.765 234.819 433.68 234.893C432.716 235.723 431.41 236.028 430.165 235.735C428.859 235.43 427.76 234.514 426.954 233.465C426.893 233.367 426.747 233.452 426.808 233.55Z" fill="#6C3939"/>
<path d="M378.301 311.278C378.582 309.264 378.435 307.201 377.886 305.248C377.63 304.357 377.288 303.454 376.653 302.758C375.457 301.428 373.431 301.025 372.308 299.633C372.113 300.439 371.82 301.122 371.881 301.953C371.942 302.807 371.588 303.381 370.843 303.783C370.087 304.186 369.196 304.211 368.329 304.211C367.792 304.211 367.255 304.223 366.718 304.223C364.74 304.235 362.714 304.247 360.847 303.564C358.991 302.88 357.307 301.354 357.026 299.389C356.684 299.133 356.05 299.182 355.83 299.548C355.61 299.914 355.622 300.366 355.635 300.781C355.659 301.794 355.696 302.795 355.72 303.808C355.732 304.418 355.757 305.041 355.964 305.614C356.111 306.017 356.343 306.395 356.416 306.823C356.526 307.396 356.355 307.982 356.367 308.556C356.404 310.045 357.636 311.205 358.857 312.059C361.201 313.707 363.861 314.928 366.644 315.611C370.184 316.49 374.237 316.685 376.727 319.346C378.155 318.357 379.51 317.088 379.973 315.416C380.462 313.768 379.986 311.705 378.301 311.278Z" fill="#603813"/>
<path d="M356.44 307.933C358.003 308.971 359.602 309.947 361.237 310.863C362.006 311.302 362.787 311.742 363.605 312.084C364.264 312.364 365.009 312.621 365.729 312.474C365.839 312.45 365.839 312.279 365.729 312.254C364.923 312.035 364.154 311.888 363.385 311.522C362.629 311.156 361.884 310.741 361.14 310.326C359.602 309.471 358.1 308.556 356.635 307.592C356.428 307.445 356.233 307.787 356.44 307.933Z" fill="#3F2108"/>
<path d="M355.744 304.43C357.136 305.456 358.637 306.298 360.224 306.969C361.005 307.299 361.811 307.58 362.629 307.799C363.434 308.019 364.35 308.312 365.192 308.214C365.326 308.202 365.424 308.007 365.265 307.933C364.533 307.604 363.691 307.531 362.922 307.311C362.104 307.079 361.298 306.823 360.505 306.505C358.894 305.871 357.38 305.016 355.989 304.003C355.732 303.808 355.488 304.235 355.744 304.43Z" fill="#3F2108"/>
<path d="M389.982 318.907C385.307 316.685 380.803 313.39 378.838 308.605C377.02 311.522 374.493 313.512 373.638 316.844C373.48 317.454 373.382 318.077 373.48 318.699C378.655 321.812 380.657 327.915 385.222 331.869C385.368 332.004 385.539 332.138 385.735 332.162C386.052 332.223 386.357 332.004 386.601 331.784C389.482 329.27 391.179 325.449 391.13 321.629C391.105 320.213 391.264 319.517 389.982 318.907Z" fill="#191C26"/>
<path d="M436.048 209.834C433.326 210.371 430.14 212.592 429.066 215.156C427.992 217.719 428.041 220.673 428.907 223.309C429.371 224.725 430.055 226.08 430.421 227.52C430.787 228.961 430.811 230.596 430.006 231.853C429.2 233.111 427.406 233.782 426.137 232.989C427.308 234.819 429.298 235.54 431.471 235.417C433.643 235.295 435.706 233.928 436.658 231.975C437.537 230.193 437.5 228.094 438.159 226.226C438.916 224.066 440.552 222.211 440.894 219.952C441.15 218.158 440.54 216.327 439.527 214.826C438.501 213.312 437.488 210.944 436.048 209.834Z" fill="#916320"/>
<path d="M453.612 267.287C451.916 263.406 450.219 259.524 448.522 255.631C448.059 254.581 447.485 253.409 446.399 253.055C444.592 252.469 442.908 254.471 441.003 254.459C439.661 254.447 438.513 253.409 437.879 252.225C437.244 251.041 436.976 249.699 436.499 248.441C435.377 245.451 433.021 242.936 430.116 241.63C431.69 239.519 433.045 237.078 433.057 234.441C433.07 232.146 432.081 229.986 431.617 227.74C431.092 225.213 431.263 222.552 432.093 220.111C432.386 219.232 433.228 218.463 434.083 218.122C438.599 216.303 443.835 216.266 448.303 218.207C452.758 220.16 456.334 224.115 457.616 228.814C459.752 236.626 455.602 244.889 456.554 252.933C456.871 255.582 457.738 258.17 457.689 260.83C457.665 263.516 456.139 266.433 453.612 267.287Z" fill="#603813"/>
<path d="M510.37 397.367C506.977 398.295 502.217 398.441 498.823 399.369C496.211 400.077 493.599 400.797 490.914 401.126C488.107 401.468 477.451 402.14 474.631 402.066C470.335 401.944 442.102 399.601 427.638 396.476C427.589 393.363 430.03 346.065 430.58 342.013C429.335 346.529 425.392 354.036 421.681 356.013C417.275 358.357 411.831 357.234 407.193 355.39C396.989 351.314 388.457 344.503 380.059 337.423C380.156 331.686 382.451 326.23 384.722 320.957C385.613 318.87 387.077 317.198 387.981 315.111C392.326 318.699 397.611 322.227 402.786 324.436C403.006 323.545 404.019 322.898 404.898 322.617C408.609 314.207 412.319 305.797 416.03 297.375C418.691 291.333 421.437 285.169 425.941 280.323C433.07 272.646 443.933 269.045 450.549 260.916C460.045 260.33 469.48 258.951 478.976 258.365C483.822 261.172 488.045 263.87 492.842 266.763C496.931 269.228 501.106 271.804 503.95 275.636C507.221 280.031 508.393 285.609 509.455 290.979C512.848 308.324 515.802 325.754 518.329 343.245C519.024 348.018 519.244 353.853 515.289 356.599C512.384 358.613 508.478 357.99 505.012 357.295C506.696 363.068 508.552 383.574 510.37 397.367Z" fill="#7A86DE"/>
<path d="M385.637 342.794C386.272 341.036 386.894 339.279 387.529 337.509C387.846 336.63 388.164 335.739 388.188 334.811C388.225 333.883 387.932 332.895 387.199 332.297C386.601 331.808 385.771 331.662 385.039 331.857C384.307 332.053 383.672 332.59 383.306 333.261C383.037 333.774 382.915 334.347 382.793 334.909C382.427 336.63 382.073 338.351 381.707 340.072C383.245 340.987 384.172 341.756 385.637 342.794Z" fill="#B77A62"/>
<path d="M384.953 334.091C384.612 334.469 384.722 335.177 385.185 335.397C385.649 335.617 386.284 335.214 386.259 334.701C386.235 334.189 385.503 333.871 385.124 334.213" fill="#915743"/>
<path d="M430.958 340.621C432.716 336.447 434.302 332.199 435.938 327.976C436.805 325.73 437.683 323.472 438.562 321.226C439.502 318.833 440.503 316.478 441.089 313.963C442.004 310.045 442.309 305.858 441.736 301.867C441.724 301.745 441.516 301.782 441.528 301.891C441.663 305.627 441.663 309.325 440.894 312.999C440.344 315.66 439.356 318.125 438.367 320.628C436.561 325.193 434.827 329.782 433.057 334.359C432.264 336.41 431.483 338.473 430.665 340.524C430.592 340.731 430.885 340.804 430.958 340.621Z" fill="#596BC1"/>
<path d="M505.769 285.084C506.171 294.312 503.73 303.246 502.119 312.242C500.496 321.348 500.349 330.588 501.436 339.767C501.741 342.354 502.131 344.93 502.534 347.505C502.949 350.105 503.315 352.754 503.95 355.305C503.999 355.5 504.341 355.464 504.316 355.256C504.035 352.961 503.547 350.691 503.193 348.396C502.839 346.077 502.522 343.758 502.278 341.427C501.777 336.801 501.435 332.162 501.46 327.5C501.484 322.813 501.912 318.162 502.68 313.536C503.425 309.044 504.402 304.601 505.146 300.122C505.976 295.154 506.562 290.113 506.159 285.072C506.159 284.827 505.756 284.815 505.769 285.084Z" fill="#596BC1"/>
<path d="M428.443 282.008C433.497 285.499 437.183 290.528 439.453 296.191C439.514 296.338 439.746 296.289 439.697 296.13C437.903 290.186 433.826 285.023 428.749 281.507C428.431 281.288 428.138 281.8 428.443 282.008Z" fill="#596BC1"/>
<path d="M484.079 276.552C485.629 273.378 485.324 269.362 483.285 266.47C482.162 264.871 480.551 263.565 479.855 261.746C478.378 257.901 481.491 253.824 481.601 249.711C481.698 245.854 479.172 242.46 478.159 238.738C476.694 233.294 478.549 227.484 477.829 221.893C476.95 215.021 472.068 209.004 465.879 205.891C459.691 202.779 452.367 202.351 445.593 203.792C441.357 204.695 437 206.66 435.267 210.627C433.118 211.665 432.667 214.753 431.971 217.035C431.58 218.317 432.313 219.708 433.35 220.575C434.376 221.429 435.669 221.905 436.866 222.504C438.062 223.114 439.246 223.932 439.746 225.177C440.039 225.897 440.076 226.702 440.332 227.435C440.82 228.79 442.065 229.778 443.445 230.181C444.446 230.474 445.605 230.56 446.264 231.365C446.997 229.827 449.121 229.083 450.646 229.839C451.794 230.413 452.502 231.646 452.758 232.903C453.014 234.16 452.892 235.466 452.758 236.748C452.672 237.627 452.575 238.53 452.135 239.287C451.696 240.044 450.805 240.617 449.951 240.398C450.695 243.181 450.744 246.586 450.158 249.418C449.633 251.969 448.059 254.264 447.875 256.863C447.68 259.817 449.34 262.588 449.597 265.542C449.804 267.886 449.133 270.205 448.815 272.536C448.51 274.867 448.657 277.467 450.207 279.225C450.915 279.31 451.427 279.152 452.135 279.005C451.623 277.479 452.05 275.685 452.428 274.123C452.66 273.159 453.063 272.243 453.185 271.254C453.454 269.094 452.38 266.75 453.332 264.785C453.21 266.824 454.906 268.52 455.309 270.534C455.834 273.183 453.942 276.051 455.016 278.529C458.483 278.212 462.071 278.126 465.562 278.261C467.21 278.322 468.87 278.493 470.518 278.407C475.351 278.163 479.306 275.734 484.079 276.552Z" fill="#916320"/>
<path d="M448.864 236.125C449.084 235.601 449.023 235.027 448.864 234.49C448.693 233.916 448.4 233.318 448.449 232.708C448.486 232.134 449.145 231.756 449.645 231.646C450.207 231.524 450.756 231.743 451.049 232.244C451.147 232.403 451.427 232.305 451.366 232.11C450.927 230.816 449.035 231.023 448.339 231.963C447.412 233.208 449.035 234.697 448.51 236.028C448.425 236.26 448.779 236.345 448.864 236.125Z" fill="#3F2108"/>
<path d="M448.815 234.673C448.815 234.282 448.803 233.855 448.974 233.489C449.108 233.208 449.352 233.001 449.658 232.927C449.853 232.879 449.804 232.598 449.609 232.586C449.182 232.574 448.828 232.891 448.657 233.257C448.449 233.696 448.474 234.197 448.498 234.661C448.522 234.868 448.815 234.868 448.815 234.673Z" fill="#3F2108"/>
<path d="M432.569 218.402C432.423 216.742 433.009 215.131 434.107 213.898C434.278 213.703 434.009 213.434 433.826 213.618C432.581 214.85 431.959 216.669 432.118 218.402C432.142 218.695 432.594 218.695 432.569 218.402Z" fill="#492424"/>
<path d="M436.377 219.464C437.464 220.038 438.55 220.636 439.502 221.417C440.54 222.259 441.235 223.26 441.65 224.518C442.041 225.702 442.554 226.715 443.432 227.618C444.263 228.472 445.251 229.253 446.325 229.778C446.46 229.852 446.618 229.668 446.496 229.559C445.593 228.716 444.519 228.069 443.664 227.166C443.201 226.678 442.81 226.141 442.517 225.531C442.212 224.896 442.065 224.212 441.785 223.578C440.82 221.381 438.587 220.197 436.548 219.171C436.353 219.074 436.17 219.367 436.377 219.464Z" fill="#492424"/>
<path d="M445.678 226.812C446.032 227.288 446.435 227.74 446.875 228.143C447.094 228.338 447.326 228.533 447.558 228.716C447.668 228.802 447.79 228.887 447.9 228.973C447.961 229.009 448.034 229.058 448.095 229.095C448.168 229.131 448.242 229.144 448.327 229.156C448.437 229.18 448.583 229.058 448.498 228.936C448.461 228.887 448.425 228.814 448.376 228.765C448.327 228.716 448.254 228.68 448.193 228.631C448.071 228.546 447.961 228.472 447.839 228.387C447.607 228.216 447.375 228.033 447.155 227.85C446.716 227.471 446.325 227.044 445.971 226.593C445.849 226.409 445.544 226.641 445.678 226.812Z" fill="#492424"/>
<path d="M451.135 241.777C452.27 243.425 453.197 245.219 453.063 247.27C452.953 248.978 452.221 250.614 451.586 252.176C450.951 253.739 450.256 255.313 450.024 256.998C449.926 257.73 449.914 258.475 450.036 259.207C450.207 260.257 450.683 261.197 451.049 262.185C451.501 263.381 451.611 264.541 451.488 265.823C451.366 267.141 451.086 268.447 450.817 269.741C450.793 269.851 450.964 269.899 450.988 269.79C451.488 267.678 451.855 265.615 451.586 263.443C451.342 261.429 450.28 259.573 450.475 257.51C450.805 253.971 453.295 251.066 453.576 247.501C453.747 245.28 452.77 243.327 451.513 241.557C451.354 241.325 450.964 241.545 451.135 241.777Z" fill="#492424"/>
<path d="M454.979 255.094C453.991 258.06 455.529 260.965 456.957 263.491C457.738 264.883 458.568 266.287 458.983 267.837C459.398 269.387 459.203 270.925 459.007 272.487C458.824 273.976 458.556 275.832 459.557 277.101C459.63 277.199 459.776 277.089 459.74 276.991C459.496 276.039 459.3 275.111 459.337 274.123C459.374 273.207 459.52 272.304 459.63 271.389C459.837 269.521 459.666 267.824 458.934 266.079C457.482 262.637 454.137 259.207 455.309 255.167C455.37 254.972 455.053 254.886 454.979 255.094Z" fill="#492424"/>
<path d="M474.704 234.478C474.509 235.747 474.521 237.041 474.802 238.298C475.07 239.531 475.62 240.642 476.23 241.728C476.901 242.936 477.597 244.133 477.902 245.487C478.22 246.903 478.085 248.38 477.768 249.784C477.146 252.494 475.815 254.972 475.217 257.693C474.948 258.926 474.814 260.196 474.997 261.453C475.18 262.71 475.693 263.796 476.389 264.846C477.231 266.116 478.024 267.324 478.439 268.801C478.659 269.558 478.781 270.351 478.818 271.132C478.854 271.889 478.745 272.621 478.72 273.378C478.708 273.574 479.001 273.598 479.05 273.427C479.416 272.267 479.33 270.913 479.135 269.729C478.928 268.52 478.525 267.348 477.927 266.287C477.268 265.103 476.328 264.077 475.852 262.796C475.376 261.538 475.327 260.171 475.498 258.853C475.839 256.07 477.109 253.507 477.89 250.834C478.622 248.295 478.757 245.78 477.548 243.364C476.877 242.021 475.986 240.788 475.449 239.384C474.851 237.822 474.643 236.162 474.875 234.514C474.887 234.417 474.729 234.368 474.704 234.478Z" fill="#492424"/>
<path d="M471.055 266.384C471.653 268.166 472.471 269.887 472.947 271.706C473.166 272.548 473.276 273.427 473.227 274.306C473.203 274.757 473.13 275.209 472.995 275.649C472.873 276.051 472.642 276.418 472.593 276.82C472.58 276.918 472.715 276.942 472.776 276.894C473.337 276.418 473.447 275.343 473.533 274.66C473.63 273.793 473.569 272.902 473.423 272.048C473.069 270.022 472.104 268.203 471.348 266.311C471.274 266.128 470.994 266.189 471.055 266.384Z" fill="#492424"/>
<path d="M449.902 240.91C450.597 243.644 450.366 246.586 449.182 249.149C448.632 250.345 447.9 251.456 447.326 252.652C446.801 253.751 446.435 254.911 446.301 256.119C446.154 257.364 446.228 258.646 446.533 259.866C446.85 261.148 447.46 262.283 448.022 263.467C448.644 264.785 449.023 266.103 448.95 267.58C448.876 269.045 448.486 270.461 448.205 271.889C447.753 274.281 447.68 277.296 449.914 278.859C450.024 278.944 450.182 278.749 450.06 278.663C447.851 276.869 448.107 273.879 448.632 271.389C448.901 270.095 449.218 268.801 449.279 267.483C449.328 266.25 449.096 265.103 448.608 263.967C448.083 262.747 447.387 261.599 447.009 260.318C446.618 259.024 446.496 257.657 446.63 256.314C446.765 254.972 447.192 253.702 447.802 252.494C448.4 251.322 449.12 250.199 449.633 248.978C450.707 246.415 450.854 243.535 450.121 240.849C450.073 240.715 449.865 240.776 449.902 240.91Z" fill="#6C3939"/>
<path d="M453.478 263.784C452.379 266.409 454.381 268.886 454.418 271.486C454.442 272.866 453.783 274.123 453.588 275.478C453.454 276.442 453.502 277.577 454.235 278.297C454.333 278.395 454.491 278.273 454.418 278.151C453.075 275.819 454.918 273.598 454.748 271.193C454.577 268.716 452.697 266.335 453.661 263.833C453.734 263.711 453.527 263.662 453.478 263.784Z" fill="#6C3939"/>
<path d="M477.121 234.88C477.28 240.202 482.15 243.852 482.577 249.113C482.699 250.675 482.48 252.237 481.942 253.714C481.43 255.13 480.697 256.473 480.417 257.962C480.197 259.195 480.319 260.428 480.966 261.514C481.564 262.527 482.467 263.333 483.261 264.199C484.323 265.359 485.031 266.689 485.348 268.239C485.665 269.777 485.592 271.328 485.494 272.89C485.482 273.012 485.69 273.036 485.702 272.914C486.117 270.424 485.958 267.605 484.628 265.408C483.297 263.211 480.575 261.844 480.649 258.963C480.685 257.401 481.393 255.972 481.967 254.557C482.516 253.189 482.895 251.786 482.943 250.309C483.029 247.55 481.955 245.109 480.6 242.778C479.172 240.324 477.414 237.822 477.268 234.905C477.28 234.783 477.121 234.783 477.121 234.88Z" fill="#6C3939"/>
<path d="M453.161 265.286C452.978 266.445 452.953 267.617 453.112 268.789C453.307 270.131 453.661 271.364 453.319 272.731C452.856 274.623 451.562 276.796 452.794 278.663C452.904 278.822 453.161 278.676 453.051 278.505C451.855 276.442 453.429 274.22 453.698 272.145C453.832 271.12 453.576 270.144 453.368 269.143C453.112 267.873 453.087 266.579 453.246 265.298C453.271 265.237 453.173 265.225 453.161 265.286Z" fill="#6C3939"/>
<path d="M402.689 324.607C404.483 327.317 405.374 330.551 405.13 333.798C405.13 333.871 405.228 333.859 405.24 333.798C405.643 330.502 404.91 327.158 403.092 324.375C402.933 324.131 402.53 324.363 402.689 324.607Z" fill="#596BC1"/>
<path d="M404.691 323.252C405.765 323.752 406.631 324.656 407.205 325.693C407.254 325.779 407.388 325.718 407.352 325.632C406.949 324.424 406.009 323.496 404.849 322.971C404.666 322.874 404.495 323.154 404.691 323.252Z" fill="#596BC1"/>
<path d="M391.716 319.187C390.837 320.86 390.08 322.581 389.445 324.363C388.835 326.072 388.115 327.976 388.042 329.807C388.042 329.941 388.225 329.953 388.261 329.831C388.591 328.989 388.762 328.098 389.006 327.231C389.25 326.328 389.531 325.437 389.848 324.558C390.471 322.788 391.227 321.067 392.106 319.395C392.24 319.163 391.85 318.931 391.716 319.187Z" fill="#596BC1"/>
<path d="M441.98 231.902C441.174 230.547 439.917 229.546 438.404 229.095C437.012 228.68 435.206 228.716 434.046 229.668C433.778 229.888 434.07 230.291 434.363 230.218C434.986 230.059 435.621 229.839 436.268 229.778C436.902 229.73 437.537 229.803 438.147 229.961C439.453 230.303 440.625 231.133 441.406 232.22C441.663 232.561 442.188 232.268 441.98 231.902Z" fill="black"/>
<path d="M434.766 230.523C435.975 230.291 437.317 230.352 438.514 230.682C439.112 230.852 439.697 231.084 440.235 231.377C440.808 231.695 441.296 232.122 441.895 232.378C442.139 232.488 442.432 232.256 442.273 232C441.919 231.39 441.309 231.023 440.698 230.682C440.076 230.34 439.405 230.071 438.709 229.913C437.33 229.583 435.975 229.62 434.62 230.047C434.327 230.145 434.461 230.584 434.766 230.523Z" fill="black"/>
<path d="M436.573 233.477C436.683 233.794 436.792 234.111 436.853 234.441C436.914 234.771 436.914 235.125 436.89 235.454C436.866 235.735 436.817 236.077 436.695 236.321C436.646 236.406 436.548 236.528 436.499 236.565C436.463 236.589 436.475 236.601 436.487 236.577C436.463 236.626 436.414 236.54 436.487 236.589C436.487 236.589 436.56 236.614 436.548 236.614C436.573 236.614 436.548 236.65 436.536 236.601C436.438 236.296 436.451 235.93 436.451 235.601C436.451 235.21 436.463 234.807 436.512 234.417C436.548 234.099 436.609 233.794 436.695 233.501H436.646C436.646 233.526 436.731 233.611 436.731 233.635C436.792 233.77 436.792 233.916 436.792 234.063C436.817 234.868 436.634 235.662 436.231 236.37C436.475 236.37 436.719 236.37 436.975 236.37C436.719 235.784 436.731 235.1 437.036 234.526C436.829 234.526 436.622 234.526 436.402 234.526C436.56 234.771 436.512 235.173 436.329 235.393C436.231 235.515 436.207 235.674 436.304 235.808C436.39 235.918 436.585 235.979 436.707 235.894C437.268 235.491 437.366 234.758 437.036 234.16C436.902 233.916 436.548 233.928 436.402 234.16C435.914 234.941 435.853 235.967 436.231 236.797C436.365 237.09 436.829 237.065 436.975 236.797C437.439 235.93 437.671 234.917 437.586 233.928C437.549 233.44 437.378 232.891 436.817 232.805C436.573 232.769 436.341 232.83 436.17 233.013C436.011 233.184 435.962 233.416 435.914 233.635C435.779 234.16 435.706 234.71 435.669 235.247C435.633 235.735 435.608 236.284 435.706 236.76C435.828 237.285 436.329 237.566 436.817 237.322C437.207 237.126 437.439 236.711 437.549 236.309C437.818 235.32 437.757 234.075 437.134 233.22C437.037 233.086 436.89 233.013 436.731 233.086C436.621 233.159 436.524 233.318 436.573 233.477Z" fill="black"/>
<path d="M437.232 246.379C438.636 246.427 439.844 245.475 440.503 244.291C440.601 244.12 440.381 243.986 440.247 244.096C439.807 244.438 439.466 244.877 439.026 245.231C438.513 245.646 437.891 245.866 437.232 245.854C436.89 245.841 436.89 246.366 437.232 246.379Z" fill="#824631"/>
<path d="M500.203 363.849C506.806 356.819 508.063 345.87 505.036 336.715C504.219 334.225 503.108 331.821 501.533 329.721C498.164 325.254 493.001 322.581 488.094 319.895C481.637 316.368 475.254 312.511 470.042 307.311C467.173 304.455 464.708 301.245 461.998 298.23C459.679 295.654 457.201 293.213 455.016 290.515C453.295 288.379 451.769 286.085 450.256 283.79C447.509 279.652 444.775 275.514 442.029 271.364C441.736 270.925 441.431 270.473 440.967 270.241C440.54 270.022 440.051 269.79 439.575 269.79C437.976 269.826 437.061 270.827 435.328 272.646C435.987 276.564 437.549 278.004 439.783 281.288C446.545 291.248 454.76 300.219 464.085 307.824C465.501 308.971 466.99 310.167 467.686 311.852C468.186 313.06 468.235 314.427 468.076 315.721C467.1 323.948 458.849 330.588 459.85 338.803C460.338 342.806 463.011 346.187 465.831 349.068C469.663 352.986 473.996 356.428 478.671 359.272C485.311 363.324 494.893 369.501 500.203 363.849Z" fill="white"/>
<path d="M473.325 316.429C474.021 318.418 474.338 320.518 474.228 322.63C474.118 324.692 473.447 326.633 473.179 328.671C472.934 330.539 473.203 332.284 474.375 333.798C475.486 335.238 476.926 336.496 478.305 337.68C483.944 342.538 490.828 346.321 498.079 348.103C499.971 348.567 501.985 348.555 503.425 347.078C504.633 345.845 505.232 344.039 505.573 342.391C505.647 342.049 505.158 341.915 505.061 342.245C504.597 343.685 504.17 345.223 503.144 346.382C501.826 347.872 499.971 347.835 498.177 347.383C494.722 346.517 491.366 345.162 488.204 343.538C485.043 341.903 482.052 339.938 479.306 337.667C477.939 336.544 476.596 335.348 475.388 334.054C474.741 333.359 474.167 332.59 473.874 331.674C473.594 330.783 473.581 329.855 473.679 328.94C473.899 326.804 474.607 324.778 474.704 322.617C474.79 320.469 474.448 318.321 473.716 316.307C473.63 316.087 473.24 316.185 473.325 316.429Z" fill="#DDE4ED"/>
<path d="M486.276 341.268C485.678 341.805 485.165 342.44 484.787 343.148C484.42 343.819 484.005 344.71 484.176 345.491C484.335 346.236 485.153 346.663 485.8 346.199C486.105 345.98 486.361 345.662 486.581 345.357C486.813 345.04 487.02 344.698 487.191 344.332C487.521 343.612 487.74 342.806 487.753 342.013C487.753 341.708 487.655 341.341 487.338 341.244C486.923 341.109 486.581 341.524 486.337 341.793C485.8 342.379 485.348 343.05 485.018 343.783C484.848 344.161 484.701 344.539 484.591 344.942C484.494 345.272 484.359 345.687 484.603 345.98C484.86 346.297 485.275 346.224 485.568 346.004C485.909 345.76 486.129 345.345 486.3 344.979C486.678 344.161 486.849 343.221 486.739 342.33C486.715 342.098 486.459 341.964 486.276 342.135C485.36 343.001 484.811 344.222 484.799 345.491C484.799 345.784 485.153 345.833 485.311 345.626C485.641 345.174 485.934 344.71 486.178 344.21C486.41 343.734 486.654 343.233 486.715 342.696C486.739 342.501 486.434 342.428 486.349 342.599C486.105 343.062 485.946 343.563 485.702 344.027C485.458 344.491 485.165 344.93 484.848 345.357C485.018 345.406 485.189 345.455 485.36 345.491C485.397 344.368 485.861 343.294 486.666 342.513C486.508 342.452 486.361 342.391 486.202 342.318C486.276 342.953 486.239 343.551 486.044 344.149C485.958 344.417 485.848 344.686 485.702 344.93C485.58 345.15 485.397 345.54 485.128 345.613C484.896 345.687 485.067 345.247 485.092 345.137C485.177 344.844 485.275 344.539 485.397 344.259C485.629 343.685 485.946 343.136 486.324 342.647C486.495 342.415 486.691 342.196 486.886 341.988C486.947 341.927 487.13 341.695 487.215 341.756C487.301 341.817 487.24 342.11 487.24 342.184C487.191 342.769 487.045 343.368 486.8 343.905C486.556 344.466 486.227 345.003 485.812 345.467C485.653 345.638 485.433 345.894 485.177 345.858C484.86 345.809 484.701 345.455 484.689 345.174C484.677 344.832 484.799 344.478 484.921 344.149C485.043 343.831 485.189 343.526 485.348 343.233C485.702 342.623 486.141 342.086 486.666 341.622C486.898 341.427 486.532 341.048 486.276 341.268Z" fill="#DDE4ED"/>
<path d="M440.308 254.447C439.49 254.288 437.769 253.251 436.841 252.311C435.718 251.151 435.181 249.576 434.473 248.124C433.497 246.086 432.154 244.206 430.531 242.619C430.287 242.375 430.03 242.131 429.896 241.813C429.628 241.154 429.981 240.422 430.335 239.799C431.031 238.591 431.776 237.419 432.569 236.284C434.205 236.736 435.193 238.31 436.78 238.908C438.892 239.702 441.345 238.725 442.908 237.102C444.47 235.479 445.349 233.318 446.179 231.231C445.849 233.294 445.093 235.283 443.982 237.053C443.42 237.944 442.773 238.774 442.249 239.69C442.102 239.946 441.956 240.227 441.968 240.52C441.98 240.983 442.322 241.362 442.627 241.704C443.579 242.79 444.311 244.047 444.8 245.414C446.118 244.218 447.436 243.022 448.754 241.838C449.255 241.386 449.743 240.935 450.134 240.385C449.999 240.727 449.963 241.106 450.048 241.459C448.681 242.497 447.607 243.864 446.545 245.219C446.081 245.805 445.605 246.403 445.251 247.062C444.885 247.733 444.629 248.478 444.348 249.198C443.921 250.345 443.432 251.481 442.725 252.482C442.017 253.47 441.467 254.044 440.308 254.447Z" fill="white"/>
<path d="M287.708 246.867C286.561 247.184 285.279 247.001 284.266 246.379C283.534 245.927 282.936 245.268 282.142 244.95C280.861 244.426 279.408 244.926 278.053 245.195C275.331 245.756 272.487 245.426 269.863 244.523C267.239 243.62 264.834 242.18 262.625 240.507C263.333 242.106 264.797 243.034 266.213 244.072C266.75 244.462 267.3 244.938 267.422 245.585C267.605 246.476 266.921 247.306 266.201 247.868C264.956 248.832 263.491 249.235 261.929 249.406C262.564 249.784 263.272 250.077 263.943 250.382C265.774 251.224 266.494 253.385 267.312 255.228C268.325 257.523 269.79 259.659 271.816 261.136C273.842 262.613 276.454 263.369 278.908 262.844C281.105 262.368 282.984 260.904 284.437 259.195C286.5 256.766 287.867 253.727 288.306 250.565C288.489 249.271 288.624 247.746 287.708 246.867Z" fill="white"/>
<path d="M280.836 246.025C281.507 248.93 281.471 251.981 280.738 254.874C280.384 256.278 279.86 257.632 279.188 258.926C278.859 259.561 278.48 260.171 278.078 260.757C277.65 261.38 277.113 261.929 276.723 262.564C276.576 262.796 276.894 262.991 277.077 262.844C278.2 261.929 279.042 260.367 279.689 259.085C280.372 257.755 280.885 256.351 281.239 254.898C281.959 251.944 281.971 248.869 281.227 245.927C281.166 245.658 280.775 245.768 280.836 246.025Z" fill="#E3E4E5"/>
</svg>
